# This file uses centimeters as units for non-parametric coordinates.

mtllib Level_Colosseum_Seating.mtl
g default
v 0.500000 -0.255593 0.000000
v 0.000000 0.255593 0.000000
v 0.500000 0.255593 0.000000
v 1.500000 0.255593 0.000000
v 1.000000 0.511186 0.000000
v 0.500000 0.511186 0.000000
v 0.000000 0.000000 0.000000
v 0.500000 0.255593 4.817382
v 1.500000 0.255593 4.817382
v 0.500000 0.511186 4.817382
v 1.000000 0.511186 4.817382
v 0.000000 0.255593 4.817382
v 0.500000 -0.255593 4.817382
v 0.000000 0.000000 4.817382
vt 0.237443 0.983197
vt 0.185817 0.882205
vt 0.185817 0.781214
vt 0.397752 0.975011
vt 0.986531 0.380486
vt 0.986531 0.328861
vt 0.501003 0.975012
vt 0.117239 0.987975
vt 0.013504 0.481476
vt 0.013504 0.533101
vt 0.013504 0.634092
vt 0.013504 0.380484
vt 0.013989 0.785990
vt 0.329175 0.878797
vt 0.449378 0.874019
vt 0.237443 0.781213
vt 0.340694 0.781212
vt 0.117241 0.785990
vt 0.277549 0.979789
vt 0.013504 0.328859
vt 0.397752 0.874019
vt 0.986531 0.481478
vt 0.986531 0.533103
vt 0.986531 0.634095
vt 0.168866 0.785992
vt 0.168866 0.886983
vt 0.380801 0.878797
vt 0.380801 0.979789
vn 0.000000 0.000000 1.000000
vn 0.000000 0.000000 1.000000
vn 0.000000 0.000000 1.000000
vn 0.000000 0.000000 1.000000
vn 0.000000 0.000000 1.000000
vn 0.000000 0.000000 1.000000
vn 0.000000 0.000000 1.000000
vn 0.000000 0.000000 1.000000
vn 0.000000 0.000000 1.000000
vn 0.000000 0.000000 1.000000
vn 0.000000 0.000000 1.000000
vn 0.000000 0.000000 -1.000000
vn 0.000000 0.000000 -1.000000
vn 0.000000 0.000000 -1.000000
vn 0.000000 0.000000 -1.000000
vn 0.000000 0.000000 -1.000000
vn 0.000000 0.000000 -1.000000
vn 0.000000 0.000000 -1.000000
vn 0.000000 0.000000 -1.000000
vn 0.000000 0.000000 -1.000000
vn 0.000000 0.000000 -1.000000
vn 0.000000 0.000000 -1.000000
vn -1.000000 0.000000 0.000000
vn -1.000000 0.000000 0.000000
vn -1.000000 0.000000 0.000000
vn -1.000000 0.000000 0.000000
vn 0.000000 1.000000 0.000000
vn 0.000000 1.000000 0.000000
vn 0.000000 1.000000 0.000000
vn 0.000000 1.000000 0.000000
vn 0.000000 1.000000 0.000000
vn 0.000000 1.000000 0.000000
vn 0.000000 1.000000 0.000000
vn 0.000000 1.000000 0.000000
vn -1.000000 0.000000 0.000000
vn -1.000000 0.000000 0.000000
vn -1.000000 0.000000 0.000000
vn -1.000000 0.000000 0.000000
s off
g polySeatings
usemtl lambert2SG
f 9/1/1 11/2/2 10/3/3 8/16/4
f 12/21/5 14/15/6 13/7/7 8/4/8
f 8/16/9 13/17/10 9/1/11
f 4/8/12 3/18/13 6/25/14 5/26/15
f 2/27/16 3/28/17 1/19/18 7/14/19
f 3/18/20 4/8/21 1/13/22
f 3/9/23 8/22/24 10/23/25 6/10/26
f 6/10/27 10/23/28 11/24/29 5/11/30
f 2/12/31 12/5/32 8/22/33 3/9/34
f 7/20/35 14/6/36 12/5/37 2/12/38
