# This file uses centimeters as units for non-parametric coordinates.

mtllib Level_Colosseum_Stair.mtl
g default
v 0.500000 -0.255593 0.000000
v 0.000000 0.255593 0.000000
v 0.500000 0.255593 0.000000
v 1.500000 0.255593 0.000000
v 1.000000 0.511186 0.000000
v 0.500000 0.511186 0.000000
v 0.000000 0.000000 0.000000
v 0.500000 0.255593 4.817382
v 1.500000 0.255593 4.817382
v 0.500000 0.511186 4.817382
v 1.000000 0.511186 4.817382
v 0.000000 0.255593 4.817382
v 0.500000 -0.255593 4.817382
v 0.000000 0.000000 4.817382
vt 0.870624 0.859854
vt 0.818998 0.758862
vt 0.818998 0.657871
vt 0.594292 0.825157
vt 0.984118 0.061949
vt 0.984118 0.010324
vt 0.697544 0.825158
vt 0.750420 0.864632
vt 0.011091 0.162938
vt 0.011091 0.214564
vt 0.011090 0.315555
vt 0.011091 0.061947
vt 0.647170 0.662647
vt 0.525716 0.728944
vt 0.645919 0.724166
vt 0.870624 0.657870
vt 0.973875 0.657869
vt 0.750422 0.662647
vt 0.474090 0.829936
vt 0.011091 0.010321
vt 0.594293 0.724166
vt 0.984118 0.162941
vt 0.984117 0.214566
vt 0.984117 0.315557
vt 0.802047 0.662649
vt 0.802047 0.763640
vt 0.577342 0.728944
vt 0.577341 0.829935
vn 0.000000 0.000000 1.000000
vn 0.000000 0.000000 1.000000
vn 0.000000 0.000000 1.000000
vn 0.000000 0.000000 1.000000
vn 0.000000 0.000000 1.000000
vn 0.000000 0.000000 1.000000
vn 0.000000 0.000000 1.000000
vn 0.000000 0.000000 1.000000
vn 0.000000 0.000000 1.000000
vn 0.000000 0.000000 1.000000
vn 0.000000 0.000000 1.000000
vn 0.000000 0.000000 -1.000000
vn 0.000000 0.000000 -1.000000
vn 0.000000 0.000000 -1.000000
vn 0.000000 0.000000 -1.000000
vn 0.000000 0.000000 -1.000000
vn 0.000000 0.000000 -1.000000
vn 0.000000 0.000000 -1.000000
vn 0.000000 0.000000 -1.000000
vn 0.000000 0.000000 -1.000000
vn 0.000000 0.000000 -1.000000
vn 0.000000 0.000000 -1.000000
vn -1.000000 0.000000 0.000000
vn -1.000000 0.000000 0.000000
vn -1.000000 0.000000 0.000000
vn -1.000000 0.000000 0.000000
vn 0.000000 1.000000 0.000000
vn 0.000000 1.000000 0.000000
vn 0.000000 1.000000 0.000000
vn 0.000000 1.000000 0.000000
vn 0.000000 1.000000 0.000000
vn 0.000000 1.000000 0.000000
vn 0.000000 1.000000 0.000000
vn 0.000000 1.000000 0.000000
vn -1.000000 0.000000 0.000000
vn -1.000000 0.000000 0.000000
vn -1.000000 0.000000 0.000000
vn -1.000000 0.000000 0.000000
s off
g polyStair
usemtl lambert2SG
f 9/1/1 11/2/2 10/3/3 8/16/4
f 12/21/5 14/15/6 13/7/7 8/4/8
f 8/16/9 13/17/10 9/1/11
f 4/8/12 3/18/13 6/25/14 5/26/15
f 2/27/16 3/28/17 1/19/18 7/14/19
f 3/18/20 4/8/21 1/13/22
f 3/9/23 8/22/24 10/23/25 6/10/26
f 6/10/27 10/23/28 11/24/29 5/11/30
f 2/12/31 12/5/32 8/22/33 3/9/34
f 7/20/35 14/6/36 12/5/37 2/12/38
