# This file uses centimeters as units for non-parametric coordinates.

mtllib Level_Colosseum_ColumnRoof.mtl
g default
v 0.000000 0.000000 5.642102
v 1.000000 0.000000 5.642102
v 0.000000 1.000000 5.642102
v 1.000000 1.000000 5.642102
v 0.000000 1.000000 0.000000
v 1.000000 1.000000 0.000000
v 0.000000 0.000000 0.000000
v 1.000000 0.000000 0.000000
v 0.000000 1.186870 1.177944
v 0.000000 0.186870 1.177944
v 1.000000 0.186870 1.177944
v 1.000000 1.186870 1.177944
v 0.000000 1.219630 4.226406
v 0.000000 0.219630 4.226406
v 1.000000 0.219630 4.226406
v 1.000000 1.219630 4.226406
v 0.000000 0.395633 6.846749
v 1.000000 0.395633 6.846749
v 1.000000 1.395633 6.846749
v 0.000000 1.395633 6.846749
v 0.000000 1.395633 -1.204646
v 1.000000 1.395633 -1.204646
v 1.000000 0.395633 -1.204646
v 0.000000 0.395633 -1.204646
vt 0.594620 0.824667
vt 0.673828 0.825203
vt 0.510335 0.830873
vt 0.968022 0.245505
vt 0.863384 0.757792
vt 0.761035 0.306835
vt 0.596943 0.313775
vt 0.676389 0.314328
vt 0.758037 0.832134
vt 0.877302 0.243050
vt 0.971135 0.130477
vt 0.586861 0.932945
vt 0.773030 0.950687
vt 0.512347 0.305584
vt 0.495861 0.416471
vt 0.866308 0.649592
vt 0.589285 0.416133
vt 0.880415 0.128021
vt 0.683016 0.416550
vt 0.948547 0.965992
vt 0.957028 0.652044
vt 0.776425 0.417748
vt 0.494366 0.699899
vt 0.873786 0.373019
vt 0.587773 0.700879
vt 0.973590 0.039757
vt 0.681846 0.701315
vt 0.954104 0.760243
vt 0.964506 0.375473
vt 0.775270 0.701204
vt 0.882871 0.037301
vt 0.680576 0.933278
vt 0.498644 0.186644
vt 0.494126 0.949413
vt 0.860276 0.872821
vt 0.775999 0.188005
vt 0.683727 0.205696
vt 0.590691 0.205323
vt 0.950997 0.875272
vt 0.857826 0.963541
vn 0.000000 0.000000 1.000000
vn 0.000000 0.000000 1.000000
vn 0.000000 0.000000 1.000000
vn 0.000000 0.000000 1.000000
vn 0.000000 0.997752 -0.067017
vn 0.000000 0.997752 -0.067017
vn 0.000000 0.999125 0.041823
vn 0.000000 0.999125 0.041823
vn 0.000000 0.000000 -1.000000
vn 0.000000 0.000000 -1.000000
vn 0.000000 0.000000 -1.000000
vn 0.000000 0.000000 -1.000000
vn 0.000000 -0.999125 -0.041823
vn 0.000000 -0.999125 -0.041823
vn 0.000000 -0.997752 0.067017
vn 0.000000 -0.997752 0.067017
vn 1.000000 0.000000 0.000000
vn 1.000000 0.000000 0.000000
vn 1.000000 0.000000 0.000000
vn 1.000000 0.000000 0.000000
vn -1.000000 0.000000 0.000000
vn -1.000000 0.000000 0.000000
vn -1.000000 0.000000 0.000000
vn -1.000000 0.000000 0.000000
vn -1.000000 0.000000 0.000000
vn -1.000000 0.000000 0.000000
vn -1.000000 0.000000 0.000000
vn -1.000000 0.000000 0.000000
vn 0.000000 -0.996183 -0.087286
vn 0.000000 -0.996183 -0.087286
vn 0.000000 -0.998653 0.051896
vn 0.000000 -0.998653 0.051896
vn 1.000000 0.000000 0.000000
vn 1.000000 0.000000 0.000000
vn 1.000000 0.000000 0.000000
vn 1.000000 0.000000 0.000000
vn 0.000000 0.998653 -0.051896
vn 0.000000 0.998653 -0.051896
vn 0.000000 0.996183 0.087286
vn 0.000000 0.996183 0.087286
vn 0.000000 -0.950074 0.312026
vn 0.000000 -0.950074 0.312026
vn 1.000000 0.000000 0.000000
vn 1.000000 0.000000 0.000000
vn 0.000000 0.950074 -0.312026
vn 0.000000 0.950074 -0.312026
vn -1.000000 0.000000 0.000000
vn -1.000000 0.000000 0.000000
vn 0.000000 0.950074 0.312026
vn 0.000000 0.950074 0.312026
vn 1.000000 0.000000 0.000000
vn 1.000000 0.000000 0.000000
vn 0.000000 -0.950074 -0.312026
vn 0.000000 -0.950074 -0.312026
vn -1.000000 0.000000 0.000000
vn -1.000000 0.000000 0.000000
s off
g pCube1
usemtl lambert2SG
f 17/31/1 18/26/2 19/11/3 20/18/4
s 1
f 3/10/5 4/4/6 16/29/7 13/24/8
s off
f 21/35/9 22/39/10 23/20/11 24/40/12
s 2
f 14/25/13 15/27/14 2/2/15 1/1/16
s 3
f 2/2/17 15/27/18 16/30/19 4/9/20
s 4
f 14/25/21 1/1/22 3/3/23 13/23/24
f 7/7/25 10/17/26 9/15/27 5/14/28
s 2
f 7/7/29 8/8/30 11/19/31 10/17/32
s 3
f 12/22/33 11/19/34 8/8/35 6/6/36
s 1
f 9/16/37 12/21/38 6/28/39 5/5/40
s 4
f 10/17/26 14/25/21 13/23/24 9/15/27
s 2
f 10/17/32 11/19/31 15/27/14 14/25/13
s 3
f 16/30/19 15/27/18 11/19/34 12/22/33
s 1
f 13/24/8 16/29/7 12/21/38 9/16/37
s 2
f 1/1/16 2/2/15 18/32/41 17/12/42
s 3
f 2/2/17 4/9/20 19/13/43 18/32/44
s 1
f 4/4/6 3/10/5 20/18/45 19/11/46
s 4
f 3/3/23 1/1/22 17/12/47 20/34/48
s 1
f 5/5/40 6/28/39 22/39/49 21/35/50
s 3
f 6/6/36 8/8/35 23/37/51 22/36/52
s 2
f 8/8/30 7/7/29 24/38/53 23/37/54
s 4
f 7/7/25 5/14/28 21/33/55 24/38/56
