# This file uses centimeters as units for non-parametric coordinates.

mtllib Level_Colosseum_Base.mtl
g default
v 11.072202 1.546414 2.966788
v 11.072203 1.546414 -2.966787
v 8.105415 1.546414 -8.105415
v 2.966788 1.546414 -11.072202
v -2.966787 1.546414 -11.072203
v -8.105415 1.546414 -8.105415
v -11.072202 1.546414 -2.966788
v -11.072203 1.546414 2.966787
v -8.105415 1.546414 8.105415
v -2.966788 1.546414 11.072202
v 2.966787 1.546414 11.072203
v 8.105415 1.546414 8.105415
v 20.780792 6.399270 5.568197
v 20.780783 6.399270 -5.568199
v 15.212594 6.399270 -15.212591
v 5.568197 6.399270 -20.780792
v -5.568199 6.399270 -20.780783
v -15.212591 6.399270 -15.212594
v -20.780792 6.399270 -5.568197
v -20.780783 6.399270 5.568199
v -15.212594 6.399270 15.212591
v -5.568197 6.399270 20.780792
v 5.568199 6.399270 20.780783
v 15.212591 6.399270 15.212594
v 23.259081 6.473344 6.232253
v 23.259075 6.473344 -6.232253
v 23.259081 -0.040197 6.232253
v 23.259075 -0.040197 -6.232253
v 17.026833 6.473344 -17.026823
v 17.026833 -0.040197 -17.026823
v 6.232253 6.473344 -23.259081
v 6.232253 -0.040197 -23.259081
v -6.232253 6.473344 -23.259075
v -6.232253 -0.040197 -23.259075
v -17.026823 6.473344 -17.026833
v -17.026823 -0.040197 -17.026833
v -23.259081 6.473344 -6.232253
v -23.259081 -0.040197 -6.232253
v -23.259075 6.473344 6.232253
v -23.259075 -0.040197 6.232253
v -17.026833 6.473344 17.026823
v -17.026833 -0.040197 17.026823
v -6.232253 6.473344 23.259081
v -6.232253 -0.040197 23.259081
v 6.232253 6.473344 23.259075
v 6.232253 -0.040197 23.259075
v 17.026823 6.473344 17.026833
v 17.026823 -0.040197 17.026833
v 9.530900 0.037939 2.553797
v 9.530899 0.037939 -2.553797
v 9.530900 1.546414 2.553797
v 9.530899 1.546414 -2.553797
v 6.977104 0.037939 -6.977102
v 6.977104 1.546414 -6.977102
v 2.553797 0.037939 -9.530900
v 2.553797 1.546414 -9.530900
v -2.553797 0.037939 -9.530899
v -2.553797 1.546414 -9.530899
v -6.977104 0.037939 -6.977104
v -6.977104 1.546414 -6.977104
v -9.530900 0.037939 -2.553797
v -9.530900 1.546414 -2.553797
v -9.530899 0.037939 2.553797
v -9.530899 1.546414 2.553797
v -6.977104 0.037939 6.977102
v -6.977104 1.546414 6.977102
v -2.553797 0.037939 9.530900
v -2.553797 1.546414 9.530900
v 2.553797 0.037939 9.530899
v 2.553797 1.546414 9.530899
v 6.977104 0.037939 6.977104
v 6.977104 1.546414 6.977104
v 20.780792 8.504058 5.568197
v 20.780783 8.504058 -5.568199
v 23.259081 8.504058 6.232252
v 23.259075 8.504058 -6.232253
v 15.212594 8.504058 -15.212591
v 17.026833 8.504058 -17.026823
v 5.568197 8.504058 -20.780792
v 6.232253 8.504058 -23.259081
v -5.568199 8.504058 -20.780783
v -6.232253 8.504058 -23.259075
v -15.212591 8.504058 -15.212594
v -17.026823 8.504058 -17.026833
v -20.780792 8.504058 -5.568197
v -23.259081 8.504058 -6.232252
v -20.780783 8.504058 5.568199
v -23.259075 8.504058 6.232253
v -15.212594 8.504058 15.212591
v -17.026833 8.504058 17.026823
v -5.568197 8.504058 20.780792
v -6.232253 8.504058 23.259081
v 5.568199 8.504058 20.780783
v 6.232253 8.504058 23.259075
v 15.212591 8.504058 15.212594
v 17.026823 8.504058 17.026833
vt 0.606150 0.531251
vt 0.606164 0.476399
vt 0.626876 0.470830
vt 0.626873 0.536785
vt 0.578713 0.578749
vt 0.593893 0.593902
vt 0.531203 0.606164
vt 0.536772 0.626876
vt 0.476350 0.606150
vt 0.470817 0.626873
vt 0.428853 0.578713
vt 0.413700 0.593893
vt 0.401438 0.531202
vt 0.380725 0.536772
vt 0.401451 0.476350
vt 0.380728 0.470817
vt 0.428889 0.428853
vt 0.413709 0.413700
vt 0.476399 0.401438
vt 0.470829 0.380725
vt 0.531252 0.401451
vt 0.536784 0.380728
vt 0.578749 0.428889
vt 0.593902 0.413709
vt 0.645543 0.541787
vt 0.645546 0.465827
vt 0.778261 0.430262
vt 0.778260 0.577345
vt 0.607560 0.607569
vt 0.704717 0.704721
vt 0.541774 0.645546
vt 0.577339 0.778262
vt 0.465814 0.645543
vt 0.430257 0.778260
vt 0.400032 0.607560
vt 0.302880 0.704717
vt 0.362055 0.541774
vt 0.229340 0.577339
vt 0.362059 0.465814
vt 0.229342 0.430257
vt 0.400042 0.400032
vt 0.302884 0.302880
vt 0.465827 0.362055
vt 0.430262 0.229340
vt 0.541787 0.362059
vt 0.577345 0.229342
vt 0.607569 0.400042
vt 0.704721 0.302884
vt 0.869320 0.601743
vt 0.869321 0.405861
vt 0.975689 0.377341
vt 0.975697 0.630227
vt 0.771378 0.771380
vt 0.849262 0.849238
vt 0.601740 0.869320
vt 0.630261 0.975689
vt 0.405859 0.869320
vt 0.377374 0.975698
vt 0.236221 0.771379
vt 0.158364 0.849262
vt 0.138281 0.601740
vt 0.031913 0.630260
vt 0.138282 0.405859
vt 0.031904 0.377374
vt 0.236223 0.236221
vt 0.158339 0.158364
vt 0.405861 0.138281
vt 0.377341 0.031913
vt 0.601743 0.138282
vt 0.630227 0.031904
vt 0.771380 0.236223
vt 0.849237 0.158339
vt 0.806594 0.584933
vt 0.806594 0.422666
vt 0.840355 0.413625
vt 0.840353 0.593983
vt 0.725462 0.725460
vt 0.750173 0.750177
vt 0.584935 0.806594
vt 0.593977 0.840355
vt 0.422668 0.806595
vt 0.413618 0.840353
vt 0.282141 0.725462
vt 0.257424 0.750173
vt 0.201007 0.584935
vt 0.167246 0.593977
vt 0.201007 0.422669
vt 0.167248 0.413618
vt 0.282140 0.282141
vt 0.257429 0.257424
vt 0.422666 0.201007
vt 0.413625 0.167246
vt 0.584933 0.201007
vt 0.593983 0.167248
vt 0.725460 0.282140
vt 0.750178 0.257429
vn -0.965926 0.000000 0.258819
vn -0.965926 0.000000 -0.258819
vn -0.965926 0.000000 -0.258819
vn -0.965926 0.000000 0.258819
vn -0.707107 0.000000 0.707107
vn -0.707107 0.000000 0.707107
vn -0.258819 0.000000 0.965926
vn -0.258819 0.000000 0.965926
vn 0.258819 0.000000 0.965926
vn 0.258819 0.000000 0.965926
vn 0.707107 0.000000 0.707107
vn 0.707107 0.000000 0.707107
vn 0.965926 0.000000 0.258819
vn 0.965926 0.000000 0.258819
vn 0.965926 0.000000 -0.258819
vn 0.965926 0.000000 -0.258819
vn 0.707107 0.000000 -0.707107
vn 0.707107 0.000000 -0.707107
vn 0.258819 0.000000 -0.965926
vn 0.258819 0.000000 -0.965926
vn -0.258819 0.000000 -0.965926
vn -0.258819 0.000000 -0.965926
vn -0.707107 0.000000 -0.707107
vn -0.707107 0.000000 -0.707107
vn -0.419979 0.900530 0.112533
vn -0.419978 0.900530 -0.112533
vn -0.419978 0.900530 -0.112533
vn -0.419979 0.900530 0.112533
vn -0.307446 0.900530 0.307446
vn -0.307446 0.900530 0.307446
vn -0.112533 0.900530 0.419979
vn -0.112533 0.900530 0.419979
vn 0.112533 0.900530 0.419979
vn 0.112533 0.900530 0.419979
vn 0.307446 0.900530 0.307446
vn 0.307446 0.900530 0.307446
vn 0.419978 0.900530 0.112533
vn 0.419978 0.900530 0.112533
vn 0.419979 0.900530 -0.112533
vn 0.419979 0.900530 -0.112533
vn 0.307446 0.900530 -0.307446
vn 0.307446 0.900530 -0.307446
vn 0.112533 0.900530 -0.419979
vn 0.112533 0.900530 -0.419979
vn -0.112533 0.900530 -0.419979
vn -0.112533 0.900530 -0.419979
vn -0.307446 0.900530 -0.307446
vn -0.307446 0.900530 -0.307446
vn 0.965926 0.000000 -0.258819
vn 0.965926 0.000000 0.258819
vn 0.965926 0.000000 0.258819
vn 0.965926 0.000000 -0.258819
vn 0.707107 0.000000 -0.707107
vn 0.707107 0.000000 -0.707107
vn 0.258819 0.000000 -0.965926
vn 0.258819 0.000000 -0.965926
vn -0.258819 0.000000 -0.965926
vn -0.258819 0.000000 -0.965926
vn -0.707107 0.000000 -0.707107
vn -0.707107 0.000000 -0.707107
vn -0.965926 0.000000 -0.258819
vn -0.965926 0.000000 -0.258819
vn -0.965926 0.000000 0.258819
vn -0.965926 0.000000 0.258819
vn -0.707107 0.000000 0.707107
vn -0.707107 0.000000 0.707107
vn -0.258819 0.000000 0.965926
vn -0.258819 0.000000 0.965926
vn 0.258819 0.000000 0.965926
vn 0.258819 0.000000 0.965926
vn 0.707107 0.000000 0.707107
vn 0.707107 0.000000 0.707107
vn 0.000000 1.000000 -0.000000
vn 0.000000 1.000000 -0.000000
vn 0.000000 1.000000 -0.000000
vn 0.000000 1.000000 -0.000000
vn 0.000000 1.000000 0.000000
vn 0.000000 1.000000 0.000000
vn 0.000000 1.000000 0.000000
vn 0.000000 1.000000 0.000000
vn 0.000000 1.000000 0.000000
vn 0.000000 1.000000 0.000000
vn 0.000000 1.000000 0.000000
vn 0.000000 1.000000 0.000000
vn 0.000000 1.000000 0.000000
vn 0.000000 1.000000 0.000000
vn 0.000000 1.000000 0.000000
vn 0.000000 1.000000 0.000000
vn 0.000000 1.000000 -0.000000
vn 0.000000 1.000000 -0.000000
vn 0.000000 1.000000 -0.000000
vn 0.000000 1.000000 -0.000000
vn 0.000000 1.000000 -0.000000
vn 0.000000 1.000000 -0.000000
vn 0.000000 1.000000 -0.000000
vn 0.000000 1.000000 -0.000000
vn 0.000000 1.000000 0.000000
vn 0.000000 1.000000 0.000000
vn 0.000000 1.000000 -0.000000
vn 0.000000 1.000000 0.000000
vn 0.000000 1.000000 0.000000
vn 0.000000 1.000000 -0.000000
vn 0.000000 1.000000 -0.000000
vn 0.000000 1.000000 -0.000000
vn 0.000000 1.000000 -0.000000
vn 0.000000 1.000000 -0.000000
vn 0.000000 1.000000 0.000000
vn 0.000000 1.000000 0.000000
vn 0.000000 1.000000 -0.000000
vn 0.000000 1.000000 -0.000000
vn 0.000000 1.000000 -0.000000
vn 0.000000 1.000000 0.000000
vn 0.000000 1.000000 -0.000000
vn 0.000000 1.000000 0.000000
vn 0.000000 1.000000 0.000000
vn 0.000000 1.000000 0.000000
vn 0.000000 1.000000 0.000000
vn 0.000000 1.000000 0.000000
vn 0.000000 1.000000 0.000000
vn 0.000000 1.000000 0.000000
vn -0.965926 0.000000 0.258819
vn -0.965926 0.000000 -0.258819
vn -0.965926 0.000000 -0.258819
vn -0.965926 0.000000 0.258819
vn 0.965926 0.000000 -0.258819
vn 0.965926 0.000001 0.258819
vn -0.707107 0.000000 0.707107
vn -0.707107 0.000000 0.707107
vn 0.707107 0.000000 -0.707107
vn -0.258819 0.000000 0.965926
vn -0.258819 0.000000 0.965926
vn 0.258819 0.000000 -0.965926
vn 0.258819 0.000000 0.965926
vn 0.258819 0.000000 0.965926
vn -0.258819 0.000000 -0.965926
vn 0.707107 0.000000 0.707107
vn 0.707107 0.000000 0.707107
vn -0.707107 0.000000 -0.707107
vn 0.965926 0.000000 0.258819
vn 0.965926 0.000000 0.258819
vn -0.965926 0.000001 -0.258819
vn 0.965926 0.000000 -0.258819
vn 0.965926 0.000000 -0.258819
vn -0.965926 0.000000 0.258819
vn 0.707107 0.000000 -0.707107
vn 0.707107 0.000000 -0.707107
vn -0.707107 0.000000 0.707107
vn 0.258819 0.000000 -0.965926
vn 0.258819 0.000000 -0.965926
vn -0.258819 0.000000 0.965926
vn -0.258819 0.000000 -0.965926
vn -0.258819 0.000000 -0.965926
vn 0.258819 0.000000 0.965926
vn -0.707107 0.000000 -0.707107
vn -0.707107 0.000000 -0.707107
vn 0.707107 0.000000 0.707107
s 1
g polyColosseumBase
usemtl lambert2SG
f 50/1/1 49/2/2 51/3/3 52/4/4
f 53/5/5 50/1/1 52/4/4 54/6/6
f 55/7/7 53/5/5 54/6/6 56/8/8
f 57/9/9 55/7/7 56/8/8 58/10/10
f 59/11/11 57/9/9 58/10/10 60/12/12
f 61/13/13 59/11/11 60/12/12 62/14/14
f 63/15/15 61/13/13 62/14/14 64/16/16
f 65/17/17 63/15/15 64/16/16 66/18/18
f 67/19/19 65/17/17 66/18/18 68/20/20
f 69/21/21 67/19/19 68/20/20 70/22/22
f 71/23/23 69/21/21 70/22/22 72/24/24
f 49/2/2 71/23/23 72/24/24 51/3/3
s 2
f 2/25/25 1/26/26 13/27/27 14/28/28
f 3/29/29 2/25/25 14/28/28 15/30/30
f 4/31/31 3/29/29 15/30/30 16/32/32
f 5/33/33 4/31/31 16/32/32 17/34/34
f 6/35/35 5/33/33 17/34/34 18/36/36
f 7/37/37 6/35/35 18/36/36 19/38/38
f 8/39/39 7/37/37 19/38/38 20/40/40
f 9/41/41 8/39/39 20/40/40 21/42/42
f 10/43/43 9/41/41 21/42/42 22/44/44
f 11/45/45 10/43/43 22/44/44 23/46/46
f 12/47/47 11/45/45 23/46/46 24/48/48
f 1/26/26 12/47/47 24/48/48 13/27/27
s 3
f 26/49/49 25/50/50 27/51/51 28/52/52
f 29/53/53 26/49/49 28/52/52 30/54/54
f 31/55/55 29/53/53 30/54/54 32/56/56
f 33/57/57 31/55/55 32/56/56 34/58/58
f 35/59/59 33/57/57 34/58/58 36/60/60
f 37/61/61 35/59/59 36/60/60 38/62/62
f 39/63/63 37/61/61 38/62/62 40/64/64
f 41/65/65 39/63/63 40/64/64 42/66/66
f 43/67/67 41/65/65 42/66/66 44/68/68
f 45/69/69 43/67/67 44/68/68 46/70/70
f 47/71/71 45/69/69 46/70/70 48/72/72
f 25/50/50 47/71/71 48/72/72 27/51/51
s 4
f 74/73/73 73/74/74 75/75/75 76/76/76
f 77/77/77 74/73/73 76/76/76 78/78/78
f 79/79/79 77/77/77 78/78/78 80/80/80
f 81/81/81 79/79/79 80/80/80 82/82/82
f 83/83/83 81/81/81 82/82/82 84/84/84
f 85/85/85 83/83/83 84/84/84 86/86/86
f 87/87/87 85/85/85 86/86/86 88/88/88
f 89/89/89 87/87/87 88/88/88 90/90/90
f 91/91/91 89/89/89 90/90/90 92/92/92
f 93/93/93 91/91/91 92/92/92 94/94/94
f 95/95/95 93/93/93 94/94/94 96/96/96
f 73/74/74 95/95/95 96/96/96 75/75/75
s 5
f 1/26/97 2/25/98 52/4/99 51/3/100
f 2/25/98 3/29/101 54/6/102 52/4/99
f 3/29/101 4/31/103 56/8/104 54/6/102
f 4/31/103 5/33/105 58/10/106 56/8/104
f 5/33/105 6/35/107 60/12/108 58/10/106
f 6/35/107 7/37/109 62/14/110 60/12/108
f 7/37/109 8/39/111 64/16/112 62/14/110
f 8/39/111 9/41/113 66/18/114 64/16/112
f 9/41/113 10/43/115 68/20/116 66/18/114
f 10/43/115 11/45/117 70/22/118 68/20/116
f 11/45/117 12/47/119 72/24/120 70/22/118
f 12/47/119 1/26/97 51/3/100 72/24/120
s 6
f 14/28/121 13/27/122 73/74/123 74/73/124
s 3
f 25/50/50 26/49/49 76/76/125 75/75/126
s 6
f 15/30/127 14/28/121 74/73/124 77/77/128
s 3
f 26/49/49 29/53/53 78/78/129 76/76/125
s 6
f 16/32/130 15/30/127 77/77/128 79/79/131
s 3
f 29/53/53 31/55/55 80/80/132 78/78/129
s 6
f 17/34/133 16/32/130 79/79/131 81/81/134
s 3
f 31/55/55 33/57/57 82/82/135 80/80/132
s 6
f 18/36/136 17/34/133 81/81/134 83/83/137
s 3
f 33/57/57 35/59/59 84/84/138 82/82/135
s 6
f 19/38/139 18/36/136 83/83/137 85/85/140
s 3
f 35/59/59 37/61/61 86/86/141 84/84/138
s 6
f 20/40/142 19/38/139 85/85/140 87/87/143
s 3
f 37/61/61 39/63/63 88/88/144 86/86/141
s 6
f 21/42/145 20/40/142 87/87/143 89/89/146
s 3
f 39/63/63 41/65/65 90/90/147 88/88/144
s 6
f 22/44/148 21/42/145 89/89/146 91/91/149
s 3
f 41/65/65 43/67/67 92/92/150 90/90/147
s 6
f 23/46/151 22/44/148 91/91/149 93/93/152
s 3
f 43/67/67 45/69/69 94/94/153 92/92/150
s 6
f 24/48/154 23/46/151 93/93/152 95/95/155
s 3
f 45/69/69 47/71/71 96/96/156 94/94/153
s 6
f 13/27/122 24/48/154 95/95/155 73/74/123
s 3
f 47/71/71 25/50/50 75/75/126 96/96/156
