# This file uses centimeters as units for non-parametric coordinates.

v -0.305281 5.945774 -0.744517
v -0.409567 5.945774 -0.492751
v -0.305281 5.945774 -0.240984
v -0.053514 5.945774 -0.136699
v 0.198253 5.945774 -0.240984
v 0.302538 5.945774 -0.492751
v 0.198253 5.945774 -0.744517
v -0.053514 5.945774 -0.848803
v -0.426611 3.743245 -0.342297
v -0.332734 3.658962 -0.561214
v -0.106096 3.624050 -0.651893
v 0.120544 3.658962 -0.561214
v 0.214421 3.743245 -0.342297
v 0.120544 3.827529 -0.123382
v -0.106096 3.862440 -0.032703
v -0.332734 3.827529 -0.123382
v -0.368607 1.532112 -0.235518
v -0.284019 1.565915 -0.436635
v -0.079805 1.579916 -0.519940
v 0.124409 1.565915 -0.436635
v 0.208998 1.532112 -0.235518
v 0.124409 1.498310 -0.034400
v -0.079805 1.484309 0.048905
v -0.284019 1.498310 -0.034400
v -0.349135 -0.000000 -0.272257
v -0.479556 -0.000000 0.042609
v -0.580020 1.532112 -0.190712
v -0.433511 1.565915 -0.539053
v -0.349135 -0.000000 0.357475
v -0.433511 1.498310 0.157630
v -0.034270 -0.000000 0.487895
v -0.079805 1.484309 0.301918
v 0.280597 -0.000000 0.357475
v 0.273901 1.498310 0.157630
v 0.411017 -0.000000 0.042609
v 0.420411 1.532112 -0.190712
v 0.280597 -0.000000 -0.272257
v 0.273901 1.565915 -0.539053
v -0.034270 -0.000000 -0.402678
v -0.079805 1.579916 -0.683341
v -0.053514 5.945774 -0.492751
vt 0.537657 0.060123
vt 0.575897 0.056040
vt 0.578283 0.220401
vt 0.541162 0.220401
vt 0.613756 0.050302
vt 0.615003 0.220401
vt 0.310095 0.056062
vt 0.347133 0.053221
vt 0.345591 0.220401
vt 0.304944 0.220401
vt 0.384489 0.053638
vt 0.386166 0.220401
vt 0.422112 0.056740
vt 0.425086 0.220401
vt 0.460196 0.060006
vt 0.463428 0.220401
vt 0.498940 0.061340
vt 0.502405 0.220401
vt 0.218482 0.260647
vt 0.242450 0.266109
vt 0.252871 0.479100
vt 0.226712 0.482122
vt 0.194380 0.258897
vt 0.200504 0.484236
vt 0.170323 0.262410
vt 0.174127 0.484684
vt 0.146457 0.269478
vt 0.147850 0.483562
vt 0.122568 0.276086
vt 0.121589 0.481625
vt 0.098646 0.278309
vt 0.095369 0.480052
vt 0.075032 0.274605
vt 0.069064 0.479477
vt 0.266338 0.271377
vt 0.279035 0.476247
vt 0.209748 0.057465
vt 0.230428 0.052317
vt 0.188547 0.059721
vt 0.167267 0.058163
vt 0.146342 0.053977
vt 0.125418 0.049727
vt 0.104130 0.047829
vt 0.082797 0.049179
vt 0.251005 0.046726
vt 0.566320 0.237924
vt 0.544611 0.237926
vt 0.603587 0.241119
vt 0.582090 0.241124
vt 0.335463 0.245425
vt 0.311927 0.245444
vt 0.379202 0.245394
vt 0.355705 0.245381
vt 0.421024 0.242319
vt 0.398292 0.242318
vt 0.459851 0.238479
vt 0.437454 0.238480
vt 0.496149 0.235898
vt 0.473565 0.235891
vt 0.531084 0.235807
vt 0.508624 0.235815
vt 0.355314 0.275525
vt 0.355314 0.334311
vt 0.296528 0.334311
vt 0.313746 0.292743
vt 0.355314 0.393097
vt 0.313746 0.375879
vt 0.396882 0.292743
vt 0.414100 0.334311
vt 0.396882 0.375879
vn -0.702752 -0.156418 -0.694027
vn -0.997795 -0.059721 0.028956
vn -0.994820 -0.074339 -0.069332
vn -0.661651 -0.160511 -0.732431
vn -0.680124 0.059480 0.730680
vn -0.737137 0.048528 0.673999
vn 0.007486 0.123319 0.992339
vn -0.006921 0.122886 0.992397
vn 0.684360 0.099454 0.722329
vn 0.726505 0.093904 0.680715
vn 0.999467 0.000200 0.032655
vn 0.997731 -0.014756 -0.065687
vn 0.714725 -0.114575 -0.689957
vn 0.658740 -0.123456 -0.742172
vn 0.006428 -0.176067 -0.984357
vn -0.007201 -0.176449 -0.984284
vn 0.002776 0.034318 0.999407
vn 0.667871 0.029531 0.743691
vn 0.698174 0.019798 0.715655
vn -0.004375 0.042925 0.999069
vn 0.021662 0.994194 0.105395
vn -0.029791 0.997249 0.067878
vn -0.026908 0.996463 0.079604
vn 0.032942 0.994158 0.102784
vn 0.053590 0.997012 0.055632
vn 0.052107 0.997427 0.049236
vn 0.000000 0.999890 0.014826
vn 0.000000 0.999890 0.014826
vn -0.053589 0.997012 0.055632
vn -0.052107 0.997427 0.049236
vn -0.021662 0.994194 0.105395
vn -0.032942 0.994158 0.102784
vn 0.029791 0.997249 0.067878
vn 0.026908 0.996463 0.079604
vn 0.000000 0.999737 0.022953
vn 0.000000 0.999737 0.022953
vn -0.703214 -0.054156 -0.708912
vn -0.729223 -0.057246 -0.681877
vn -0.997507 -0.023004 0.066708
vn -0.999957 -0.009234 0.000077
vn 0.997935 0.000519 0.064235
vn 0.999727 -0.023116 0.003237
vn -0.703721 0.031965 0.709757
vn -0.664308 0.014469 0.747319
vn -0.004425 -0.074570 -0.997206
vn 0.002915 -0.064043 -0.997943
vn -0.689256 -0.049576 -0.722820
vn -0.999636 0.005734 -0.026364
vn 0.005588 -0.084580 -0.996401
vn 0.699343 -0.061673 -0.712120
vn 0.696365 -0.081091 -0.713092
vn 0.998980 -0.041365 -0.018100
vn 0.717867 0.012654 0.696065
vn 0.006015 0.050068 0.998728
vn -0.714256 0.047913 0.698242
vn 0.731736 -0.039148 -0.680463
vn 0.000000 1.000000 0.000000
vn 0.000000 1.000000 0.000000
vn 0.000000 1.000000 0.000000
vn 0.000000 1.000000 0.000000
vn 0.000001 1.000000 0.000000
vn 0.000001 1.000000 0.000000
vn 0.000001 1.000000 0.000000
vn 0.000001 1.000000 0.000000
vn 0.000000 1.000000 0.000000
vn 0.000000 1.000000 0.000000
vn 0.000000 1.000000 0.000000
vn 0.000000 1.000000 0.000000
vn -0.000001 1.000000 -0.000000
vn -0.000001 1.000000 -0.000000
vn -0.000001 1.000000 -0.000000
vn -0.000001 1.000000 -0.000000
g polySurface28 polySurface25
f 25/1/1 26/2/2 27/3/3 28/4/4
f 26/2/2 29/5/5 30/6/6 27/3/3
f 29/7/5 31/8/7 32/9/8 30/10/6
f 31/8/7 33/11/9 34/12/10 32/9/8
f 33/11/9 35/13/11 36/14/12 34/12/10
f 35/13/11 37/15/13 38/16/14 36/14/12
f 37/15/13 39/17/15 40/18/16 38/16/14
f 39/17/15 25/1/1 28/4/4 40/18/16
f 23/43/17 22/42/18 14/29/19 15/31/20
f 17/46/21 18/47/22 28/4/23 27/3/24
f 24/48/25 17/49/21 27/3/24 30/6/26
f 23/50/27 24/51/25 30/10/26 32/9/28
f 22/52/29 23/53/27 32/9/28 34/12/30
f 21/54/31 22/55/29 34/12/30 36/14/32
f 20/56/33 21/57/31 36/14/32 38/16/34
f 19/58/35 20/59/33 38/16/34 40/18/36
f 18/60/22 19/61/35 40/18/36 28/4/23
f 10/19/37 18/37/38 17/38/39 9/20/40
f 22/42/18 21/41/41 13/27/42 14/29/19
f 16/33/43 24/44/44 23/43/17 15/31/20
f 9/20/40 17/38/39 24/45/44 16/35/43
f 11/23/45 19/39/46 18/37/38 10/19/37
f 1/22/47 10/19/37 9/20/40 2/21/48
f 8/24/49 11/23/45 10/19/37 1/22/47
f 12/25/50 11/23/45 8/24/49 7/26/51
f 13/27/42 12/25/50 7/26/51 6/28/52
f 14/29/19 13/27/42 6/28/52 5/30/53
f 15/31/20 14/29/19 5/30/53 4/32/54
f 3/34/55 16/33/43 15/31/20 4/32/54
f 2/21/48 9/20/40 16/35/43 3/36/55
f 20/40/56 19/39/46 11/23/45 12/25/50
f 21/41/41 20/40/56 12/25/50 13/27/42
f 4/62/57 41/63/58 2/64/59 3/65/60
f 41/63/61 8/66/62 1/67/63 2/64/64
f 41/63/65 4/62/66 5/68/67 6/69/68
f 8/66/69 41/63/70 6/69/71 7/70/72
