# This file uses centimeters as units for non-parametric coordinates.

mtllib Level_Colosseum_Seating.mtl
g default
v 0.000004 0.000000 5.436407
v 0.000000 0.000000 0.000000
v 0.000004 0.700459 5.436407
v 0.000000 0.566570 0.000000
v -1.004429 0.700459 5.596971
v -1.004429 0.566570 -0.160564
v -1.004429 0.000000 5.596971
v -1.004429 0.000000 -0.160564
v 0.000001 0.000000 1.378196
v 0.000001 0.718890 1.378196
v -1.004427 0.759919 1.299041
v 0.000000 0.000000 4.058211
v 0.000000 0.569865 4.058211
v -1.004429 0.610893 4.137366
v -1.004429 0.532676 -0.111256
v -1.004433 0.532676 5.596970
v -1.004429 1.268109 -0.111256
v -1.004433 1.127534 5.596970
v -2.059003 1.268109 -0.279849
v -2.059011 1.127534 5.765563
v -2.059003 0.532676 -0.279849
v -2.059011 0.532676 5.765563
v -1.004429 0.532676 4.149865
v -1.004429 1.287460 4.149865
v -2.059003 1.330537 4.232977
v -1.004429 0.532676 1.335849
v -1.004429 1.130993 1.335849
v -2.059004 1.174070 1.252736
vt 0.149448 0.015416
vt 0.332470 0.025342
vt 0.332094 0.102700
vt 0.144165 0.108437
vt 0.320666 0.239067
vt 0.125342 0.243231
vt 0.953294 0.089955
vt 0.979270 0.225734
vt 0.903793 0.240463
vt 0.877570 0.104475
vt 0.032605 0.230364
vt 0.051181 0.095416
vt 0.693345 0.016720
vt 0.881702 0.027120
vt 0.692868 0.112799
vt 0.703345 0.247319
vt 0.864719 0.263000
vt 0.870196 0.359104
vt 0.676404 0.353287
vt 0.676019 0.273610
vt 0.889640 0.498099
vt 0.688207 0.494000
vt 0.035434 0.339846
vt 0.113601 0.354932
vt 0.086446 0.495325
vt 0.008500 0.480018
vt 0.985661 0.484673
vt 0.966302 0.345528
vt 0.303690 0.264603
vt 0.304165 0.363741
vt 0.109421 0.275084
vt 0.293350 0.502477
vn 1.000000 0.000000 -0.000003
vn 1.000000 0.000000 -0.000001
vn 1.000000 0.000000 -0.000001
vn 1.000000 0.000000 -0.000003
vn 0.011132 0.996942 -0.077344
vn 0.031411 0.999432 0.012246
vn 0.030077 0.999528 0.006320
vn 0.011132 0.996942 -0.077344
vn 0.157852 0.000000 -0.987463
vn 0.157852 0.000000 -0.987463
vn 0.157852 0.000000 -0.987463
vn 0.157852 0.000000 -0.987463
vn 0.157851 0.000000 0.987463
vn 0.157851 0.000000 0.987463
vn 0.157851 0.000000 0.987463
vn 0.157851 0.000000 0.987463
vn 1.000000 0.000000 0.000000
vn 1.000000 0.000000 -0.000001
vn 1.000000 0.000000 -0.000001
vn 1.000000 0.000000 0.000000
vn 0.038686 0.999205 -0.009607
vn 0.038946 0.999240 -0.001891
vn 0.034682 0.992066 -0.120843
vn 0.034682 0.992066 -0.120843
vn 1.000000 0.000000 -0.000001
vn 1.000000 0.000000 0.000000
vn 1.000000 0.000000 0.000000
vn 1.000000 0.000000 -0.000001
vn 0.030077 0.999528 0.006320
vn 0.031411 0.999432 0.012246
vn 0.038946 0.999240 -0.001891
vn 0.038686 0.999205 -0.009607
vn 1.000000 0.000000 0.000000
vn 1.000000 0.000000 0.000000
vn 1.000000 0.000000 0.000000
vn 1.000000 0.000000 0.000000
vn 0.011132 0.996943 0.077339
vn 0.011132 0.996943 0.077339
vn 0.030077 0.999528 -0.006319
vn 0.031411 0.999432 -0.012245
vn 0.157863 0.000000 0.987461
vn 0.157863 0.000000 0.987461
vn 0.157863 0.000000 0.987461
vn 0.157863 0.000000 0.987461
vn 0.157863 0.000000 -0.987461
vn 0.157863 0.000000 -0.987461
vn 0.157863 0.000000 -0.987461
vn 0.157863 0.000000 -0.987461
vn 1.000000 0.000000 0.000001
vn 1.000000 0.000000 0.000001
vn 1.000000 0.000000 0.000003
vn 1.000000 0.000000 0.000003
vn 0.038686 0.999205 0.009607
vn 0.034682 0.992067 0.120835
vn 0.034682 0.992067 0.120835
vn 0.038946 0.999240 0.001891
vn 1.000000 0.000000 0.000000
vn 1.000000 0.000000 0.000000
vn 1.000000 0.000000 0.000001
vn 1.000000 0.000000 0.000001
vn 0.030077 0.999528 -0.006319
vn 0.038686 0.999205 0.009607
vn 0.038946 0.999240 0.001891
vn 0.031411 0.999432 -0.012245
s off
g polySeats
usemtl initialShadingGroup
f 1/1/1 12/2/2 13/3/3 3/4/4
f 3/4/5 13/3/6 14/5/7 5/6/8
f 2/7/9 8/8/10 6/9/11 4/10/12
f 7/11/13 1/12/14 3/4/15 5/6/16
f 9/13/17 2/14/18 4/10/19 10/15/20
f 11/16/21 10/15/22 4/10/23 6/9/24
f 12/2/25 9/13/26 10/15/27 13/3/28
f 14/5/29 13/3/30 10/15/31 11/16/32
f 15/17/33 17/18/34 27/19/35 26/20/36
f 17/18/37 19/21/38 28/22/39 27/19/40
f 16/23/41 18/24/42 20/25/43 22/26/44
f 21/27/45 19/21/46 17/18/47 15/28/48
f 23/29/49 24/30/50 18/24/51 16/31/52
f 25/32/53 20/25/54 18/24/55 24/30/56
f 26/20/57 27/19/58 24/30/59 23/29/60
f 28/22/61 25/32/62 24/30/63 27/19/64
