# This file uses centimeters as units for non-parametric coordinates.

mtllib superkoolbandanabanana.mtl
g default
v -70.920980 72.544611 3.546052
v -78.013099 72.544611 3.546052
v -70.920980 72.266308 0.000000
v -78.013099 72.266308 0.000000
v -70.920980 72.544611 -3.546052
v -78.013099 72.544611 -3.546052
v -70.920980 72.822915 0.000000
v -78.013099 72.822915 0.000000
v -63.828892 72.544611 3.546052
v -63.828892 72.266308 0.000000
v -63.828892 72.544611 -3.546052
v -63.828892 72.822915 0.000000
v -56.736789 72.544611 3.546052
v -56.736789 72.266308 0.000000
v -56.736789 72.544611 -3.546052
v -56.736789 72.822915 0.000000
v -49.644685 72.544611 3.546052
v -49.644685 72.266308 0.000000
v -49.644685 72.544611 -3.546052
v -49.644685 72.822915 0.000000
v -42.552582 72.544611 3.546052
v -42.552582 72.266308 0.000000
v -42.552582 72.544611 -3.546052
v -42.552582 72.822915 0.000000
v -35.460494 72.544611 3.546052
v -35.460494 72.266308 0.000000
v -35.460494 72.544611 -3.546052
v -35.460494 72.822915 0.000000
v -28.368390 72.544611 3.546052
v -28.368390 72.266308 0.000000
v -28.368390 72.544611 -3.546052
v -28.368390 72.822915 0.000000
v -21.276295 72.544611 3.546052
v -21.276295 72.266308 0.000000
v -21.276295 72.544611 -3.546052
v -21.276295 72.822915 0.000000
v -14.184199 72.544611 3.546052
v -14.184199 72.266308 0.000000
v -14.184199 72.544611 -3.546052
v -14.184199 72.822915 0.000000
v -7.092103 72.544611 3.546052
v -7.092103 72.266308 0.000000
v -7.092103 72.544611 -3.546052
v -7.092103 72.822915 0.000000
v -0.000000 72.544611 3.546052
v -0.000000 72.266308 0.000000
v -0.000000 72.544611 -3.546052
v -0.000000 72.822915 0.000000
v -148.934071 72.544611 3.546052
v -156.026175 72.544611 3.546052
v -148.934071 72.266308 0.000000
v -156.026175 72.266308 0.000000
v -148.934071 72.544611 -3.546052
v -156.026175 72.544611 -3.546052
v -148.934071 72.822915 0.000000
v -156.026175 72.822915 0.000000
v -141.841968 72.544611 3.546052
v -141.841968 72.266308 0.000000
v -141.841968 72.544611 -3.546052
v -141.841968 72.822915 0.000000
v -134.749880 72.544611 3.546052
v -134.749880 72.266308 0.000000
v -134.749880 72.544611 -3.546052
v -134.749880 72.822915 0.000000
v -127.657776 72.544611 3.546052
v -127.657776 72.266308 0.000000
v -127.657776 72.544611 -3.546052
v -127.657776 72.822915 0.000000
v -120.565689 72.544611 3.546052
v -120.565689 72.266308 0.000000
v -120.565689 72.544611 -3.546052
v -120.565689 72.822915 0.000000
v -113.473585 72.544611 3.546052
v -113.473585 72.266308 0.000000
v -113.473585 72.544611 -3.546052
v -113.473585 72.822915 0.000000
v -106.381482 72.544611 3.546052
v -106.381482 72.266308 0.000000
v -106.381482 72.544611 -3.546052
v -106.381482 72.822915 0.000000
v -99.289378 72.544611 3.546052
v -99.289378 72.266308 0.000000
v -99.289378 72.544611 -3.546052
v -99.289378 72.822915 0.000000
v -92.197290 72.544611 3.546052
v -92.197290 72.266308 0.000000
v -92.197290 72.544611 -3.546052
v -92.197290 72.822915 0.000000
v -85.105202 72.544611 3.546052
v -85.105202 72.266308 0.000000
v -85.105202 72.544611 -3.546052
v -85.105202 72.822915 0.000000
vt 0.102920 0.004909
vt 0.209454 0.004909
vt 0.209454 0.058176
vt 0.102920 0.058176
vt 0.209454 0.111443
vt 0.102920 0.111443
vt 0.209454 0.058176
vt 0.102920 0.058176
vt 0.102920 0.004909
vt 0.209454 0.004909
vt 0.209454 0.058176
vt 0.102920 0.058176
vt 0.209454 0.111443
vt 0.102920 0.111443
vt 0.209454 0.058176
vt 0.102920 0.058176
vt 0.102920 0.004909
vt 0.209454 0.004909
vt 0.209454 0.058176
vt 0.102920 0.058176
vt 0.209454 0.111443
vt 0.102920 0.111443
vt 0.209454 0.058176
vt 0.102920 0.058176
vt 0.102920 0.004909
vt 0.209454 0.004909
vt 0.209454 0.058176
vt 0.102920 0.058176
vt 0.209454 0.111443
vt 0.102920 0.111443
vt 0.209454 0.058176
vt 0.102920 0.058176
vt 0.102920 0.004909
vt 0.209454 0.004909
vt 0.209454 0.058176
vt 0.102920 0.058176
vt 0.209454 0.111443
vt 0.102920 0.111443
vt 0.209454 0.058176
vt 0.102920 0.058176
vt 0.102920 0.004909
vt 0.209454 0.004909
vt 0.209454 0.058176
vt 0.102920 0.058176
vt 0.209454 0.111443
vt 0.102920 0.111443
vt 0.209454 0.058176
vt 0.102920 0.058176
vt 0.102920 0.004909
vt 0.209454 0.004909
vt 0.209454 0.058176
vt 0.102920 0.058176
vt 0.209454 0.111443
vt 0.102920 0.111443
vt 0.209454 0.058176
vt 0.102920 0.058176
vt 0.102920 0.004909
vt 0.209454 0.004909
vt 0.209454 0.058176
vt 0.102920 0.058176
vt 0.209454 0.111443
vt 0.102920 0.111443
vt 0.209454 0.058176
vt 0.102920 0.058176
vt 0.102920 0.004909
vt 0.209454 0.004909
vt 0.209454 0.058176
vt 0.102920 0.058176
vt 0.209454 0.111443
vt 0.102920 0.111443
vt 0.209454 0.058176
vt 0.102920 0.058176
vt 0.102920 0.004909
vt 0.209454 0.004909
vt 0.209454 0.058176
vt 0.102920 0.058176
vt 0.209454 0.111443
vt 0.102920 0.111443
vt 0.209454 0.058176
vt 0.102920 0.058176
vt 0.102920 0.004909
vt 0.209454 0.004909
vt 0.209454 0.058176
vt 0.102920 0.058176
vt 0.209454 0.111443
vt 0.102920 0.111443
vt 0.209454 0.058176
vt 0.102920 0.058176
vt 0.102920 0.004909
vt 0.209454 0.004909
vt 0.209454 0.058176
vt 0.102920 0.058176
vt 0.209454 0.111443
vt 0.102920 0.111443
vt 0.209454 0.058176
vt 0.102920 0.058176
vt 0.102920 0.004909
vt 0.209454 0.004909
vt 0.209454 0.058176
vt 0.102920 0.058176
vt 0.209454 0.111443
vt 0.102920 0.111443
vt 0.209454 0.058176
vt 0.102920 0.058176
vt 0.102920 0.004909
vt 0.209454 0.004909
vt 0.209454 0.058176
vt 0.102920 0.058176
vt 0.209454 0.111443
vt 0.102920 0.111443
vt 0.209454 0.058176
vt 0.102920 0.058176
vt 0.102920 0.004909
vt 0.209454 0.004909
vt 0.209454 0.058176
vt 0.102920 0.058176
vt 0.209454 0.111443
vt 0.102920 0.111443
vt 0.209454 0.058176
vt 0.102920 0.058176
vt 0.102920 0.004909
vt 0.209454 0.004909
vt 0.209454 0.058176
vt 0.102920 0.058176
vt 0.209454 0.111443
vt 0.102920 0.111443
vt 0.209454 0.058176
vt 0.102920 0.058176
vt 0.102920 0.004909
vt 0.209454 0.004909
vt 0.209454 0.058176
vt 0.102920 0.058176
vt 0.209454 0.111443
vt 0.102920 0.111443
vt 0.209454 0.058176
vt 0.102920 0.058176
vt 0.102920 0.004909
vt 0.209454 0.004909
vt 0.209454 0.058176
vt 0.102920 0.058176
vt 0.209454 0.111443
vt 0.102920 0.111443
vt 0.209454 0.058176
vt 0.102920 0.058176
vt 0.102920 0.004909
vt 0.209454 0.004909
vt 0.209454 0.058176
vt 0.102920 0.058176
vt 0.209454 0.111443
vt 0.102920 0.111443
vt 0.209454 0.058176
vt 0.102920 0.058176
vt 0.102920 0.004909
vt 0.209454 0.004909
vt 0.209454 0.058176
vt 0.102920 0.058176
vt 0.209454 0.111443
vt 0.102920 0.111443
vt 0.209454 0.058176
vt 0.102920 0.058176
vt 0.102920 0.004909
vt 0.209454 0.004909
vt 0.209454 0.058176
vt 0.102920 0.058176
vt 0.209454 0.111443
vt 0.102920 0.111443
vt 0.209454 0.058176
vt 0.102920 0.058176
vt 0.102920 0.004909
vt 0.209454 0.004909
vt 0.209454 0.058176
vt 0.102920 0.058176
vt 0.209454 0.111443
vt 0.102920 0.111443
vt 0.209454 0.058176
vt 0.102920 0.058176
vn 0.000000 -0.996934 0.078242
vn 0.000000 -0.996934 0.078242
vn 0.000000 -0.996934 0.078242
vn 0.000000 -0.996934 0.078242
vn 0.000000 -0.996934 -0.078242
vn 0.000000 -0.996934 -0.078242
vn 0.000000 -0.996934 -0.078242
vn 0.000000 -0.996934 -0.078242
vn 0.000000 0.996934 -0.078242
vn 0.000000 0.996934 -0.078242
vn 0.000000 0.996934 -0.078242
vn 0.000000 0.996934 -0.078242
vn 0.000000 0.996934 0.078242
vn 0.000000 0.996934 0.078242
vn 0.000000 0.996934 0.078242
vn 0.000000 0.996934 0.078242
vn 0.000000 -0.996934 0.078242
vn 0.000000 -0.996934 0.078242
vn 0.000000 -0.996934 0.078242
vn 0.000000 -0.996934 0.078242
vn 0.000000 -0.996934 -0.078242
vn 0.000000 -0.996934 -0.078242
vn 0.000000 -0.996934 -0.078242
vn 0.000000 -0.996934 -0.078242
vn 0.000000 0.996934 -0.078242
vn 0.000000 0.996934 -0.078242
vn 0.000000 0.996934 -0.078242
vn 0.000000 0.996934 -0.078242
vn 0.000000 0.996934 0.078242
vn 0.000000 0.996934 0.078242
vn 0.000000 0.996934 0.078242
vn 0.000000 0.996934 0.078242
vn 0.000000 -0.996934 0.078242
vn 0.000000 -0.996934 0.078242
vn 0.000000 -0.996934 0.078242
vn 0.000000 -0.996934 0.078242
vn 0.000000 -0.996934 -0.078242
vn 0.000000 -0.996934 -0.078242
vn 0.000000 -0.996934 -0.078242
vn 0.000000 -0.996934 -0.078242
vn 0.000000 0.996934 -0.078242
vn 0.000000 0.996934 -0.078242
vn 0.000000 0.996934 -0.078242
vn 0.000000 0.996934 -0.078242
vn 0.000000 0.996934 0.078242
vn 0.000000 0.996934 0.078242
vn 0.000000 0.996934 0.078242
vn 0.000000 0.996934 0.078242
vn 0.000000 -0.996934 0.078242
vn 0.000000 -0.996934 0.078242
vn 0.000000 -0.996934 0.078242
vn 0.000000 -0.996934 0.078242
vn 0.000000 -0.996934 -0.078242
vn 0.000000 -0.996934 -0.078242
vn 0.000000 -0.996934 -0.078242
vn 0.000000 -0.996934 -0.078242
vn 0.000000 0.996934 -0.078242
vn 0.000000 0.996934 -0.078242
vn 0.000000 0.996934 -0.078242
vn 0.000000 0.996934 -0.078242
vn 0.000000 0.996934 0.078242
vn 0.000000 0.996934 0.078242
vn 0.000000 0.996934 0.078242
vn 0.000000 0.996934 0.078242
vn 0.000000 -0.996934 0.078242
vn 0.000000 -0.996934 0.078242
vn 0.000000 -0.996934 0.078242
vn 0.000000 -0.996934 0.078242
vn 0.000000 -0.996934 -0.078242
vn 0.000000 -0.996934 -0.078242
vn 0.000000 -0.996934 -0.078242
vn 0.000000 -0.996934 -0.078242
vn 0.000000 0.996934 -0.078242
vn 0.000000 0.996934 -0.078242
vn 0.000000 0.996934 -0.078242
vn 0.000000 0.996934 -0.078242
vn 0.000000 0.996934 0.078242
vn 0.000000 0.996934 0.078242
vn 0.000000 0.996934 0.078242
vn 0.000000 0.996934 0.078242
vn 0.000000 -0.996934 0.078242
vn 0.000000 -0.996934 0.078242
vn 0.000000 -0.996934 0.078242
vn 0.000000 -0.996934 0.078242
vn 0.000000 -0.996934 -0.078242
vn 0.000000 -0.996934 -0.078242
vn 0.000000 -0.996934 -0.078242
vn 0.000000 -0.996934 -0.078242
vn 0.000000 0.996934 -0.078242
vn 0.000000 0.996934 -0.078242
vn 0.000000 0.996934 -0.078242
vn 0.000000 0.996934 -0.078242
vn 0.000000 0.996934 0.078242
vn 0.000000 0.996934 0.078242
vn 0.000000 0.996934 0.078242
vn 0.000000 0.996934 0.078242
vn 0.000000 -0.996934 0.078242
vn 0.000000 -0.996934 0.078242
vn 0.000000 -0.996934 0.078242
vn 0.000000 -0.996934 0.078242
vn 0.000000 -0.996934 -0.078242
vn 0.000000 -0.996934 -0.078242
vn 0.000000 -0.996934 -0.078242
vn 0.000000 -0.996934 -0.078242
vn 0.000000 0.996934 -0.078242
vn 0.000000 0.996934 -0.078242
vn 0.000000 0.996934 -0.078242
vn 0.000000 0.996934 -0.078242
vn 0.000000 0.996934 0.078242
vn 0.000000 0.996934 0.078242
vn 0.000000 0.996934 0.078242
vn 0.000000 0.996934 0.078242
vn 0.000000 -0.996934 0.078242
vn 0.000000 -0.996934 0.078242
vn 0.000000 -0.996934 0.078242
vn 0.000000 -0.996934 0.078242
vn 0.000000 -0.996934 -0.078242
vn 0.000000 -0.996934 -0.078242
vn 0.000000 -0.996934 -0.078242
vn 0.000000 -0.996934 -0.078242
vn 0.000000 0.996934 -0.078242
vn 0.000000 0.996934 -0.078242
vn 0.000000 0.996934 -0.078242
vn 0.000000 0.996934 -0.078242
vn 0.000000 0.996934 0.078242
vn 0.000000 0.996934 0.078242
vn 0.000000 0.996934 0.078242
vn 0.000000 0.996934 0.078242
vn 0.000000 -0.996934 0.078242
vn 0.000000 -0.996934 0.078242
vn 0.000000 -0.996934 0.078242
vn 0.000000 -0.996934 0.078242
vn 0.000000 -0.996934 -0.078242
vn 0.000000 -0.996934 -0.078242
vn 0.000000 -0.996934 -0.078242
vn 0.000000 -0.996934 -0.078242
vn 0.000000 0.996934 -0.078242
vn 0.000000 0.996934 -0.078242
vn 0.000000 0.996934 -0.078242
vn 0.000000 0.996934 -0.078242
vn 0.000000 0.996934 0.078242
vn 0.000000 0.996934 0.078242
vn 0.000000 0.996934 0.078242
vn 0.000000 0.996934 0.078242
vn 0.000000 -0.996934 0.078242
vn 0.000000 -0.996934 0.078242
vn 0.000000 -0.996934 0.078242
vn 0.000000 -0.996934 0.078242
vn 0.000000 -0.996934 -0.078242
vn 0.000000 -0.996934 -0.078242
vn 0.000000 -0.996934 -0.078242
vn 0.000000 -0.996934 -0.078242
vn 0.000000 0.996934 -0.078242
vn 0.000000 0.996934 -0.078242
vn 0.000000 0.996934 -0.078242
vn 0.000000 0.996934 -0.078242
vn 0.000000 0.996934 0.078242
vn 0.000000 0.996934 0.078242
vn 0.000000 0.996934 0.078242
vn 0.000000 0.996934 0.078242
vn 0.000000 -0.996934 0.078242
vn 0.000000 -0.996934 0.078242
vn 0.000000 -0.996934 0.078242
vn 0.000000 -0.996934 0.078242
vn 0.000000 -0.996934 -0.078242
vn 0.000000 -0.996934 -0.078242
vn 0.000000 -0.996934 -0.078242
vn 0.000000 -0.996934 -0.078242
vn 0.000000 0.996934 -0.078242
vn 0.000000 0.996934 -0.078242
vn 0.000000 0.996934 -0.078242
vn 0.000000 0.996934 -0.078242
vn 0.000000 0.996934 0.078242
vn 0.000000 0.996934 0.078242
vn 0.000000 0.996934 0.078242
vn 0.000000 0.996934 0.078242
vn 0.000000 -0.996934 0.078242
vn 0.000000 -0.996934 0.078242
vn 0.000000 -0.996934 0.078242
vn 0.000000 -0.996934 0.078242
vn 0.000000 -0.996934 -0.078242
vn 0.000000 -0.996934 -0.078242
vn 0.000000 -0.996934 -0.078242
vn 0.000000 -0.996934 -0.078242
vn 0.000000 0.996934 -0.078242
vn 0.000000 0.996934 -0.078242
vn 0.000000 0.996934 -0.078242
vn 0.000000 0.996934 -0.078242
vn 0.000000 0.996934 0.078242
vn 0.000000 0.996934 0.078242
vn 0.000000 0.996934 0.078242
vn 0.000000 0.996934 0.078242
vn -1.000000 0.000000 0.000000
vn -1.000000 0.000000 0.000000
vn -1.000000 0.000000 0.000000
vn -1.000000 0.000000 0.000000
vn 0.000000 -0.996934 0.078242
vn 0.000000 -0.996934 0.078242
vn 0.000000 -0.996934 0.078242
vn 0.000000 -0.996934 0.078242
vn 0.000000 -0.996934 -0.078242
vn 0.000000 -0.996934 -0.078242
vn 0.000000 -0.996934 -0.078242
vn 0.000000 -0.996934 -0.078242
vn 0.000000 0.996934 -0.078242
vn 0.000000 0.996934 -0.078242
vn 0.000000 0.996934 -0.078242
vn 0.000000 0.996934 -0.078242
vn 0.000000 0.996934 0.078242
vn 0.000000 0.996934 0.078242
vn 0.000000 0.996934 0.078242
vn 0.000000 0.996934 0.078242
vn 0.000000 -0.996934 0.078242
vn 0.000000 -0.996934 0.078242
vn 0.000000 -0.996934 0.078242
vn 0.000000 -0.996934 0.078242
vn 0.000000 -0.996934 -0.078242
vn 0.000000 -0.996934 -0.078242
vn 0.000000 -0.996934 -0.078242
vn 0.000000 -0.996934 -0.078242
vn 0.000000 0.996934 -0.078242
vn 0.000000 0.996934 -0.078242
vn 0.000000 0.996934 -0.078242
vn 0.000000 0.996934 -0.078242
vn 0.000000 0.996934 0.078242
vn 0.000000 0.996934 0.078242
vn 0.000000 0.996934 0.078242
vn 0.000000 0.996934 0.078242
vn 0.000000 -0.996934 0.078242
vn 0.000000 -0.996934 0.078242
vn 0.000000 -0.996934 0.078242
vn 0.000000 -0.996934 0.078242
vn 0.000000 -0.996934 -0.078242
vn 0.000000 -0.996934 -0.078242
vn 0.000000 -0.996934 -0.078242
vn 0.000000 -0.996934 -0.078242
vn 0.000000 0.996934 -0.078242
vn 0.000000 0.996934 -0.078242
vn 0.000000 0.996934 -0.078242
vn 0.000000 0.996934 -0.078242
vn 0.000000 0.996934 0.078242
vn 0.000000 0.996934 0.078242
vn 0.000000 0.996934 0.078242
vn 0.000000 0.996934 0.078242
vn 0.000000 -0.996934 0.078242
vn 0.000000 -0.996934 0.078242
vn 0.000000 -0.996934 0.078242
vn 0.000000 -0.996934 0.078242
vn 0.000000 -0.996934 -0.078242
vn 0.000000 -0.996934 -0.078242
vn 0.000000 -0.996934 -0.078242
vn 0.000000 -0.996934 -0.078242
vn 0.000000 0.996934 -0.078242
vn 0.000000 0.996934 -0.078242
vn 0.000000 0.996934 -0.078242
vn 0.000000 0.996934 -0.078242
vn 0.000000 0.996934 0.078242
vn 0.000000 0.996934 0.078242
vn 0.000000 0.996934 0.078242
vn 0.000000 0.996934 0.078242
vn 0.000000 -0.996934 0.078242
vn 0.000000 -0.996934 0.078242
vn 0.000000 -0.996934 0.078242
vn 0.000000 -0.996934 0.078242
vn 0.000000 -0.996934 -0.078242
vn 0.000000 -0.996934 -0.078242
vn 0.000000 -0.996934 -0.078242
vn 0.000000 -0.996934 -0.078242
vn 0.000000 0.996934 -0.078242
vn 0.000000 0.996934 -0.078242
vn 0.000000 0.996934 -0.078242
vn 0.000000 0.996934 -0.078242
vn 0.000000 0.996934 0.078242
vn 0.000000 0.996934 0.078242
vn 0.000000 0.996934 0.078242
vn 0.000000 0.996934 0.078242
vn 0.000000 -0.996934 0.078242
vn 0.000000 -0.996934 0.078242
vn 0.000000 -0.996934 0.078242
vn 0.000000 -0.996934 0.078242
vn 0.000000 -0.996934 -0.078242
vn 0.000000 -0.996934 -0.078242
vn 0.000000 -0.996934 -0.078242
vn 0.000000 -0.996934 -0.078242
vn 0.000000 0.996934 -0.078242
vn 0.000000 0.996934 -0.078242
vn 0.000000 0.996934 -0.078242
vn 0.000000 0.996934 -0.078242
vn 0.000000 0.996934 0.078242
vn 0.000000 0.996934 0.078242
vn 0.000000 0.996934 0.078242
vn 0.000000 0.996934 0.078242
vn 0.000000 -0.996934 0.078242
vn 0.000000 -0.996934 0.078242
vn 0.000000 -0.996934 0.078242
vn 0.000000 -0.996934 0.078242
vn 0.000000 -0.996934 -0.078242
vn 0.000000 -0.996934 -0.078242
vn 0.000000 -0.996934 -0.078242
vn 0.000000 -0.996934 -0.078242
vn 0.000000 0.996934 -0.078242
vn 0.000000 0.996934 -0.078242
vn 0.000000 0.996934 -0.078242
vn 0.000000 0.996934 -0.078242
vn 0.000000 0.996934 0.078242
vn 0.000000 0.996934 0.078242
vn 0.000000 0.996934 0.078242
vn 0.000000 0.996934 0.078242
vn 0.000000 -0.996934 0.078242
vn 0.000000 -0.996934 0.078242
vn 0.000000 -0.996934 0.078242
vn 0.000000 -0.996934 0.078242
vn 0.000000 -0.996934 -0.078242
vn 0.000000 -0.996934 -0.078242
vn 0.000000 -0.996934 -0.078242
vn 0.000000 -0.996934 -0.078242
vn 0.000000 0.996934 -0.078242
vn 0.000000 0.996934 -0.078242
vn 0.000000 0.996934 -0.078242
vn 0.000000 0.996934 -0.078242
vn 0.000000 0.996934 0.078242
vn 0.000000 0.996934 0.078242
vn 0.000000 0.996934 0.078242
vn 0.000000 0.996934 0.078242
vn 0.000000 -0.996934 0.078242
vn 0.000000 -0.996934 0.078242
vn 0.000000 -0.996934 0.078242
vn 0.000000 -0.996934 0.078242
vn 0.000000 -0.996934 -0.078242
vn 0.000000 -0.996934 -0.078242
vn 0.000000 -0.996934 -0.078242
vn 0.000000 -0.996934 -0.078242
vn 0.000000 0.996934 -0.078242
vn 0.000000 0.996934 -0.078242
vn 0.000000 0.996934 -0.078242
vn 0.000000 0.996934 -0.078242
vn 0.000000 0.996934 0.078242
vn 0.000000 0.996934 0.078242
vn 0.000000 0.996934 0.078242
vn 0.000000 0.996934 0.078242
vn 0.000000 -0.996934 0.078242
vn 0.000000 -0.996934 0.078242
vn 0.000000 -0.996934 0.078242
vn 0.000000 -0.996934 0.078242
vn 0.000000 -0.996934 -0.078242
vn 0.000000 -0.996934 -0.078242
vn 0.000000 -0.996934 -0.078242
vn 0.000000 -0.996934 -0.078242
vn 0.000000 0.996934 -0.078242
vn 0.000000 0.996934 -0.078242
vn 0.000000 0.996934 -0.078242
vn 0.000000 0.996934 -0.078242
vn 0.000000 0.996934 0.078242
vn 0.000000 0.996934 0.078242
vn 0.000000 0.996934 0.078242
vn 0.000000 0.996934 0.078242
s off
g polySurface78
usemtl pasted__lambert2SG
f 1/1/1 2/2/2 4/3/3 3/4/4
f 3/4/5 4/3/6 6/5/7 5/6/8
f 5/6/9 6/5/10 8/7/11 7/8/12
f 7/8/13 8/7/14 2/2/15 1/1/16
f 9/9/17 1/10/18 3/11/19 10/12/20
f 10/12/21 3/11/22 5/13/23 11/14/24
f 11/14/25 5/13/26 7/15/27 12/16/28
f 12/16/29 7/15/30 1/10/31 9/9/32
f 13/17/33 9/18/34 10/19/35 14/20/36
f 14/20/37 10/19/38 11/21/39 15/22/40
f 15/22/41 11/21/42 12/23/43 16/24/44
f 16/24/45 12/23/46 9/18/47 13/17/48
f 17/25/49 13/26/50 14/27/51 18/28/52
f 18/28/53 14/27/54 15/29/55 19/30/56
f 19/30/57 15/29/58 16/31/59 20/32/60
f 20/32/61 16/31/62 13/26/63 17/25/64
f 21/33/65 17/34/66 18/35/67 22/36/68
f 22/36/69 18/35/70 19/37/71 23/38/72
f 23/38/73 19/37/74 20/39/75 24/40/76
f 24/40/77 20/39/78 17/34/79 21/33/80
f 25/41/81 21/42/82 22/43/83 26/44/84
f 26/44/85 22/43/86 23/45/87 27/46/88
f 27/46/89 23/45/90 24/47/91 28/48/92
f 28/48/93 24/47/94 21/42/95 25/41/96
f 29/49/97 25/50/98 26/51/99 30/52/100
f 30/52/101 26/51/102 27/53/103 31/54/104
f 31/54/105 27/53/106 28/55/107 32/56/108
f 32/56/109 28/55/110 25/50/111 29/49/112
f 33/57/113 29/58/114 30/59/115 34/60/116
f 34/60/117 30/59/118 31/61/119 35/62/120
f 35/62/121 31/61/122 32/63/123 36/64/124
f 36/64/125 32/63/126 29/58/127 33/57/128
f 37/65/129 33/66/130 34/67/131 38/68/132
f 38/68/133 34/67/134 35/69/135 39/70/136
f 39/70/137 35/69/138 36/71/139 40/72/140
f 40/72/141 36/71/142 33/66/143 37/65/144
f 41/73/145 37/74/146 38/75/147 42/76/148
f 42/76/149 38/75/150 39/77/151 43/78/152
f 43/78/153 39/77/154 40/79/155 44/80/156
f 44/80/157 40/79/158 37/74/159 41/73/160
f 45/81/161 41/82/162 42/83/163 46/84/164
f 46/84/165 42/83/166 43/85/167 47/86/168
f 47/86/169 43/85/170 44/87/171 48/88/172
f 48/88/173 44/87/174 41/82/175 45/81/176
f 49/89/177 50/90/178 52/91/179 51/92/180
f 51/92/181 52/91/182 54/93/183 53/94/184
f 53/94/185 54/93/186 56/95/187 55/96/188
f 55/96/189 56/95/190 50/90/191 49/89/192
f 50/90/193 56/95/194 54/93/195 52/91/196
f 57/97/197 49/98/198 51/99/199 58/100/200
f 58/100/201 51/99/202 53/101/203 59/102/204
f 59/102/205 53/101/206 55/103/207 60/104/208
f 60/104/209 55/103/210 49/98/211 57/97/212
f 61/105/213 57/106/214 58/107/215 62/108/216
f 62/108/217 58/107/218 59/109/219 63/110/220
f 63/110/221 59/109/222 60/111/223 64/112/224
f 64/112/225 60/111/226 57/106/227 61/105/228
f 65/113/229 61/114/230 62/115/231 66/116/232
f 66/116/233 62/115/234 63/117/235 67/118/236
f 67/118/237 63/117/238 64/119/239 68/120/240
f 68/120/241 64/119/242 61/114/243 65/113/244
f 69/121/245 65/122/246 66/123/247 70/124/248
f 70/124/249 66/123/250 67/125/251 71/126/252
f 71/126/253 67/125/254 68/127/255 72/128/256
f 72/128/257 68/127/258 65/122/259 69/121/260
f 73/129/261 69/130/262 70/131/263 74/132/264
f 74/132/265 70/131/266 71/133/267 75/134/268
f 75/134/269 71/133/270 72/135/271 76/136/272
f 76/136/273 72/135/274 69/130/275 73/129/276
f 77/137/277 73/138/278 74/139/279 78/140/280
f 78/140/281 74/139/282 75/141/283 79/142/284
f 79/142/285 75/141/286 76/143/287 80/144/288
f 80/144/289 76/143/290 73/138/291 77/137/292
f 81/145/293 77/146/294 78/147/295 82/148/296
f 82/148/297 78/147/298 79/149/299 83/150/300
f 83/150/301 79/149/302 80/151/303 84/152/304
f 84/152/305 80/151/306 77/146/307 81/145/308
f 85/153/309 81/154/310 82/155/311 86/156/312
f 86/156/313 82/155/314 83/157/315 87/158/316
f 87/158/317 83/157/318 84/159/319 88/160/320
f 88/160/321 84/159/322 81/154/323 85/153/324
f 89/161/325 85/162/326 86/163/327 90/164/328
f 90/164/329 86/163/330 87/165/331 91/166/332
f 91/166/333 87/165/334 88/167/335 92/168/336
f 92/168/337 88/167/338 85/162/339 89/161/340
f 2/169/341 89/170/342 90/171/343 4/172/344
f 4/172/345 90/171/346 91/173/347 6/174/348
f 6/174/349 91/173/350 92/175/351 8/176/352
f 8/176/353 92/175/354 89/170/355 2/169/356
