# This file uses centimeters as units for non-parametric coordinates.

mtllib SpeedSphere.mtl
g default
v 2.013379 0.000000 -0.654186
v 1.244336 0.000000 -1.712682
v 0.000000 0.000000 -2.116991
v -1.244336 0.000000 -1.712682
v -2.013378 0.000000 -0.654186
v -2.013378 0.000000 0.654186
v -1.244335 0.000000 1.712681
v 0.000000 0.000000 2.116991
v 1.244336 0.000000 1.712681
v 2.013378 0.000000 0.654186
v 1.988591 0.356304 -0.646132
v 1.229017 0.356304 -1.691596
v 0.000000 0.356304 -2.090928
v -1.229016 0.356304 -1.691596
v -1.988590 0.356304 -0.646132
v -1.988590 0.356304 0.646132
v -1.229016 0.356304 1.691595
v 0.000000 0.356304 2.090927
v 1.229016 0.356304 1.691595
v 1.988590 0.356304 0.646132
v 1.793934 1.023188 -0.582884
v 1.108712 1.023188 -1.526011
v 0.000000 1.023188 -1.886253
v -1.108711 1.023188 -1.526011
v -1.793933 1.023188 -0.582884
v -1.793933 1.023188 0.582884
v -1.108711 1.023188 1.526010
v 0.000000 1.023188 1.886253
v 1.108711 1.023188 1.526010
v 1.793933 1.023188 0.582884
v 1.423674 1.541540 -0.462580
v 0.879879 1.541540 -1.211049
v 0.000000 1.541540 -1.496939
v -0.879879 1.541540 -1.211049
v -1.423673 1.541540 -0.462579
v -1.423673 1.541540 0.462579
v -0.879879 1.541540 1.211049
v 0.000000 1.541540 1.496938
v 0.879878 1.541540 1.211048
v 1.423673 1.541540 0.462579
v 0.914055 1.896977 -0.296994
v 0.564917 1.896977 -0.777541
v 0.000000 1.896977 -0.961094
v -0.564917 1.896977 -0.777541
v -0.914055 1.896977 -0.296994
v -0.914055 1.896977 0.296994
v -0.564917 1.896977 0.777541
v 0.000000 1.896977 0.961094
v 0.564917 1.896977 0.777541
v 0.914054 1.896977 0.296994
v 0.314962 2.078832 -0.102337
v 0.194657 2.078832 -0.267923
v 0.000000 2.078832 -0.331170
v -0.194657 2.078832 -0.267922
v -0.314961 2.078832 -0.102337
v -0.314961 2.078832 0.102337
v -0.194657 2.078832 0.267922
v 0.000000 2.078832 0.331170
v 0.194657 2.078832 0.267922
v 0.314962 2.078832 0.102337
v 0.000000 2.101264 0.000000
v 2.013379 0.000000 -0.654186
v 1.244336 0.000000 -1.712682
v 0.000000 0.000000 -2.116991
v -1.244336 0.000000 -1.712682
v -2.013378 0.000000 -0.654186
v -2.013378 0.000000 0.654186
v -1.244335 0.000000 1.712681
v 0.000000 0.000000 2.116991
v 1.244336 0.000000 1.712681
v 2.013378 0.000000 0.654186
v 1.988591 0.356304 -0.646132
v 1.229017 0.356304 -1.691596
v 0.000000 0.356304 -2.090928
v -1.229016 0.356304 -1.691596
v -1.988590 0.356304 -0.646132
v -1.988590 0.356304 0.646132
v -1.229016 0.356304 1.691595
v 0.000000 0.356304 2.090927
v 1.229016 0.356304 1.691595
v 1.988590 0.356304 0.646132
v 1.793934 1.023188 -0.582884
v 1.108712 1.023188 -1.526011
v 0.000000 1.023188 -1.886253
v -1.108711 1.023188 -1.526011
v -1.793933 1.023188 -0.582884
v -1.793933 1.023188 0.582884
v -1.108711 1.023188 1.526010
v 0.000000 1.023188 1.886253
v 1.108711 1.023188 1.526010
v 1.793933 1.023188 0.582884
v 1.423674 1.541540 -0.462580
v 0.879879 1.541540 -1.211049
v 0.000000 1.541540 -1.496939
v -0.879879 1.541540 -1.211049
v -1.423673 1.541540 -0.462579
v -1.423673 1.541540 0.462579
v -0.879879 1.541540 1.211049
v 0.000000 1.541540 1.496938
v 0.879878 1.541540 1.211048
v 1.423673 1.541540 0.462579
v 0.914055 1.896977 -0.296994
v 0.564917 1.896977 -0.777541
v 0.000000 1.896977 -0.961094
v -0.564917 1.896977 -0.777541
v -0.914055 1.896977 -0.296994
v -0.914055 1.896977 0.296994
v -0.564917 1.896977 0.777541
v 0.000000 1.896977 0.961094
v 0.564917 1.896977 0.777541
v 0.914054 1.896977 0.296994
v 0.314962 2.078832 -0.102337
v 0.194657 2.078832 -0.267923
v 0.000000 2.078832 -0.331170
v -0.194657 2.078832 -0.267922
v -0.314961 2.078832 -0.102337
v -0.314961 2.078832 0.102337
v -0.194657 2.078832 0.267922
v 0.000000 2.078832 0.331170
v 0.194657 2.078832 0.267922
v 0.314962 2.078832 0.102337
v 0.000000 2.101264 0.000000
vt 0.965871 0.651376
vt 0.787921 0.896298
vt 0.499995 0.989848
vt 0.212071 0.896292
vt 0.034126 0.651366
vt 0.034129 0.348624
vt 0.212080 0.103702
vt 0.500006 0.010153
vt 0.787930 0.103708
vt 0.965875 0.348634
vt 0.902295 0.630719
vt 0.748629 0.842217
vt 0.499995 0.922999
vt 0.251363 0.842211
vt 0.097702 0.630709
vt 0.097706 0.369281
vt 0.251372 0.157783
vt 0.500005 0.077001
vt 0.748637 0.157790
vt 0.902298 0.369291
vt 0.758625 0.584037
vt 0.659836 0.720003
vt 0.499996 0.771935
vt 0.340157 0.719998
vt 0.241373 0.584029
vt 0.241376 0.415963
vt 0.340164 0.279997
vt 0.500004 0.228065
vt 0.659843 0.280002
vt 0.758627 0.415971
vt 0.653465 0.549865
vt 0.594846 0.630546
vt 0.499999 0.661363
vt 0.405153 0.630545
vt 0.346535 0.549863
vt 0.346535 0.450135
vt 0.405154 0.369455
vt 0.500001 0.338637
vt 0.594847 0.369455
vt 0.653465 0.450137
vt 0.577829 0.525281
vt 0.548106 0.566199
vt 0.500007 0.581832
vt 0.451906 0.566208
vt 0.422176 0.525294
vt 0.422171 0.474719
vt 0.451895 0.433801
vt 0.499993 0.418168
vt 0.548094 0.433792
vt 0.577825 0.474706
vt 0.528963 0.509368
vt 0.517925 0.524603
vt 0.500041 0.530440
vt 0.482141 0.524650
vt 0.471063 0.509445
vt 0.471037 0.490632
vt 0.482075 0.475397
vt 0.499960 0.469560
vt 0.517860 0.475350
vt 0.528938 0.490555
vt 0.500000 0.500000
vt 0.902295 0.630719
vt 0.748629 0.842217
vt 0.787921 0.896298
vt 0.965871 0.651376
vt 0.499995 0.922999
vt 0.499995 0.989848
vt 0.251363 0.842211
vt 0.212071 0.896292
vt 0.097702 0.630709
vt 0.034126 0.651366
vt 0.097706 0.369281
vt 0.034129 0.348624
vt 0.251372 0.157783
vt 0.212080 0.103702
vt 0.500005 0.077001
vt 0.500006 0.010153
vt 0.748637 0.157790
vt 0.787930 0.103708
vt 0.902298 0.369291
vt 0.965875 0.348634
vt 0.758625 0.584037
vt 0.659836 0.720003
vt 0.499996 0.771935
vt 0.340157 0.719998
vt 0.241373 0.584029
vt 0.241376 0.415963
vt 0.340164 0.279997
vt 0.500004 0.228065
vt 0.659843 0.280002
vt 0.758627 0.415971
vt 0.653465 0.549865
vt 0.594846 0.630546
vt 0.499999 0.661363
vt 0.405153 0.630545
vt 0.346535 0.549863
vt 0.346535 0.450135
vt 0.405154 0.369455
vt 0.500001 0.338637
vt 0.594847 0.369455
vt 0.653465 0.450137
vt 0.577829 0.525281
vt 0.548106 0.566199
vt 0.500007 0.581832
vt 0.451906 0.566208
vt 0.422176 0.525294
vt 0.422171 0.474719
vt 0.451895 0.433801
vt 0.499993 0.418168
vt 0.548094 0.433792
vt 0.577825 0.474706
vt 0.528963 0.509368
vt 0.517925 0.524603
vt 0.500041 0.530440
vt 0.482141 0.524650
vt 0.471063 0.509445
vt 0.471037 0.490632
vt 0.482075 0.475397
vt 0.499960 0.469560
vt 0.517860 0.475350
vt 0.528938 0.490555
vt 0.500000 0.500000
vn 0.929141 0.213439 -0.301896
vn 0.948522 0.072955 -0.308193
vn 0.586219 0.072955 -0.806861
vn 0.574241 0.213439 -0.790374
vn -0.000000 0.072955 -0.997335
vn -0.000000 0.213439 -0.976956
vn -0.586219 0.072955 -0.806861
vn -0.574241 0.213439 -0.790374
vn -0.948522 0.072956 -0.308193
vn -0.929141 0.213439 -0.301896
vn -0.948522 0.072956 0.308194
vn -0.929141 0.213439 0.301896
vn -0.586219 0.072955 0.806861
vn -0.574241 0.213438 0.790374
vn 0.000000 0.072955 0.997335
vn 0.000000 0.213438 0.976957
vn 0.586219 0.072955 0.806861
vn 0.574241 0.213439 0.790374
vn 0.948522 0.072955 0.308194
vn 0.929141 0.213439 0.301897
vn 0.862494 0.421389 -0.280241
vn 0.533051 0.421389 -0.733681
vn -0.000000 0.421389 -0.906880
vn -0.533051 0.421389 -0.733681
vn -0.862494 0.421389 -0.280241
vn -0.862494 0.421389 0.280241
vn -0.533051 0.421389 0.733681
vn 0.000000 0.421389 0.906880
vn 0.533051 0.421389 0.733681
vn 0.862494 0.421389 0.280242
vn 0.687467 0.691009 -0.223371
vn 0.424878 0.691009 -0.584795
vn -0.000000 0.691009 -0.722846
vn -0.424878 0.691009 -0.584795
vn -0.687468 0.691009 -0.223372
vn -0.687468 0.691009 0.223372
vn -0.424878 0.691009 0.584795
vn 0.000000 0.691009 0.722846
vn 0.424878 0.691009 0.584795
vn 0.687467 0.691009 0.223372
vn 0.458948 0.875859 -0.149121
vn 0.283645 0.875859 -0.390405
vn -0.000000 0.875859 -0.482567
vn -0.283646 0.875859 -0.390405
vn -0.458948 0.875859 -0.149121
vn -0.458948 0.875859 0.149121
vn -0.283646 0.875859 0.390405
vn 0.000000 0.875859 0.482567
vn 0.283646 0.875859 0.390405
vn 0.458948 0.875859 0.149122
vn 0.248215 0.965342 -0.080650
vn 0.153405 0.965342 -0.211145
vn -0.000000 0.965342 -0.260989
vn -0.153405 0.965342 -0.211145
vn -0.248215 0.965342 -0.080650
vn -0.248215 0.965342 0.080650
vn -0.153405 0.965342 0.211145
vn 0.000000 0.965342 0.260989
vn 0.153406 0.965342 0.211145
vn 0.248215 0.965342 0.080650
vn 0.000000 1.000000 -0.000000
vn -0.929141 -0.213439 0.301896
vn -0.574241 -0.213439 0.790374
vn -0.586219 -0.072955 0.806861
vn -0.948522 -0.072955 0.308193
vn 0.000000 -0.213439 0.976956
vn 0.000000 -0.072955 0.997335
vn 0.574241 -0.213439 0.790374
vn 0.586219 -0.072955 0.806861
vn 0.929141 -0.213439 0.301896
vn 0.948522 -0.072956 0.308193
vn 0.929141 -0.213439 -0.301896
vn 0.948522 -0.072956 -0.308194
vn 0.574241 -0.213438 -0.790374
vn 0.586219 -0.072955 -0.806861
vn -0.000000 -0.213438 -0.976957
vn 0.000000 -0.072955 -0.997335
vn -0.574241 -0.213438 -0.790374
vn -0.586219 -0.072955 -0.806861
vn -0.929141 -0.213439 -0.301897
vn -0.948522 -0.072955 -0.308194
vn -0.862494 -0.421389 0.280241
vn -0.533051 -0.421389 0.733681
vn 0.000000 -0.421389 0.906880
vn 0.533051 -0.421389 0.733681
vn 0.862494 -0.421389 0.280241
vn 0.862494 -0.421389 -0.280241
vn 0.533051 -0.421389 -0.733681
vn -0.000000 -0.421389 -0.906880
vn -0.533051 -0.421389 -0.733681
vn -0.862494 -0.421389 -0.280242
vn -0.687467 -0.691009 0.223371
vn -0.424878 -0.691009 0.584795
vn 0.000000 -0.691009 0.722846
vn 0.424878 -0.691009 0.584795
vn 0.687468 -0.691009 0.223372
vn 0.687468 -0.691009 -0.223372
vn 0.424878 -0.691009 -0.584795
vn -0.000000 -0.691009 -0.722846
vn -0.424878 -0.691009 -0.584795
vn -0.687467 -0.691009 -0.223372
vn -0.458948 -0.875859 0.149121
vn -0.283645 -0.875859 0.390405
vn 0.000000 -0.875859 0.482567
vn 0.283646 -0.875859 0.390405
vn 0.458948 -0.875859 0.149121
vn 0.458948 -0.875859 -0.149121
vn 0.283646 -0.875859 -0.390405
vn -0.000000 -0.875859 -0.482567
vn -0.283646 -0.875859 -0.390405
vn -0.458948 -0.875859 -0.149122
vn -0.248215 -0.965342 0.080650
vn -0.153405 -0.965342 0.211144
vn 0.000000 -0.965342 0.260989
vn 0.153405 -0.965342 0.211145
vn 0.248215 -0.965342 0.080650
vn 0.248215 -0.965342 -0.080650
vn 0.153405 -0.965342 -0.211145
vn -0.000000 -0.965342 -0.260989
vn -0.153406 -0.965342 -0.211145
vn -0.248215 -0.965342 -0.080650
vn -0.000000 -1.000000 -0.000000
s 1
g SpeedSphere
usemtl lambert2SG
f 11/11/1 1/1/2 2/2/3 12/12/4
f 12/12/4 2/2/3 3/3/5 13/13/6
f 13/13/6 3/3/5 4/4/7 14/14/8
f 14/14/8 4/4/7 5/5/9 15/15/10
f 15/15/10 5/5/9 6/6/11 16/16/12
f 16/16/12 6/6/11 7/7/13 17/17/14
f 17/17/14 7/7/13 8/8/15 18/18/16
f 18/18/16 8/8/15 9/9/17 19/19/18
f 19/19/18 9/9/17 10/10/19 20/20/20
f 20/20/20 10/10/19 1/1/2 11/11/1
f 21/21/21 11/11/1 12/12/4 22/22/22
f 22/22/22 12/12/4 13/13/6 23/23/23
f 23/23/23 13/13/6 14/14/8 24/24/24
f 24/24/24 14/14/8 15/15/10 25/25/25
f 25/25/25 15/15/10 16/16/12 26/26/26
f 26/26/26 16/16/12 17/17/14 27/27/27
f 27/27/27 17/17/14 18/18/16 28/28/28
f 28/28/28 18/18/16 19/19/18 29/29/29
f 29/29/29 19/19/18 20/20/20 30/30/30
f 30/30/30 20/20/20 11/11/1 21/21/21
f 31/31/31 21/21/21 22/22/22 32/32/32
f 32/32/32 22/22/22 23/23/23 33/33/33
f 33/33/33 23/23/23 24/24/24 34/34/34
f 34/34/34 24/24/24 25/25/25 35/35/35
f 35/35/35 25/25/25 26/26/26 36/36/36
f 36/36/36 26/26/26 27/27/27 37/37/37
f 37/37/37 27/27/27 28/28/28 38/38/38
f 38/38/38 28/28/28 29/29/29 39/39/39
f 39/39/39 29/29/29 30/30/30 40/40/40
f 40/40/40 30/30/30 21/21/21 31/31/31
f 41/41/41 31/31/31 32/32/32 42/42/42
f 42/42/42 32/32/32 33/33/33 43/43/43
f 43/43/43 33/33/33 34/34/34 44/44/44
f 44/44/44 34/34/34 35/35/35 45/45/45
f 45/45/45 35/35/35 36/36/36 46/46/46
f 46/46/46 36/36/36 37/37/37 47/47/47
f 47/47/47 37/37/37 38/38/38 48/48/48
f 48/48/48 38/38/38 39/39/39 49/49/49
f 49/49/49 39/39/39 40/40/40 50/50/50
f 50/50/50 40/40/40 31/31/31 41/41/41
f 51/51/51 41/41/41 42/42/42 52/52/52
f 52/52/52 42/42/42 43/43/43 53/53/53
f 53/53/53 43/43/43 44/44/44 54/54/54
f 54/54/54 44/44/44 45/45/45 55/55/55
f 55/55/55 45/45/45 46/46/46 56/56/56
f 56/56/56 46/46/46 47/47/47 57/57/57
f 57/57/57 47/47/47 48/48/48 58/58/58
f 58/58/58 48/48/48 49/49/49 59/59/59
f 59/59/59 49/49/49 50/50/50 60/60/60
f 60/60/60 50/50/50 41/41/41 51/51/51
f 61/61/61 51/51/51 52/52/52
f 61/61/61 52/52/52 53/53/53
f 61/61/61 53/53/53 54/54/54
f 61/61/61 54/54/54 55/55/55
f 61/61/61 55/55/55 56/56/56
f 61/61/61 56/56/56 57/57/57
f 61/61/61 57/57/57 58/58/58
f 61/61/61 58/58/58 59/59/59
f 61/61/61 59/59/59 60/60/60
f 61/61/61 60/60/60 51/51/51
s 2
f 72/62/62 73/63/63 63/64/64 62/65/65
f 73/63/63 74/66/66 64/67/67 63/64/64
f 74/66/66 75/68/68 65/69/69 64/67/67
f 75/68/68 76/70/70 66/71/71 65/69/69
f 76/70/70 77/72/72 67/73/73 66/71/71
f 77/72/72 78/74/74 68/75/75 67/73/73
f 78/74/74 79/76/76 69/77/77 68/75/75
f 79/76/76 80/78/78 70/79/79 69/77/77
f 80/78/78 81/80/80 71/81/81 70/79/79
f 81/80/80 72/62/62 62/65/65 71/81/81
f 82/82/82 83/83/83 73/63/63 72/62/62
f 83/83/83 84/84/84 74/66/66 73/63/63
f 84/84/84 85/85/85 75/68/68 74/66/66
f 85/85/85 86/86/86 76/70/70 75/68/68
f 86/86/86 87/87/87 77/72/72 76/70/70
f 87/87/87 88/88/88 78/74/74 77/72/72
f 88/88/88 89/89/89 79/76/76 78/74/74
f 89/89/89 90/90/90 80/78/78 79/76/76
f 90/90/90 91/91/91 81/80/80 80/78/78
f 91/91/91 82/82/82 72/62/62 81/80/80
f 92/92/92 93/93/93 83/83/83 82/82/82
f 93/93/93 94/94/94 84/84/84 83/83/83
f 94/94/94 95/95/95 85/85/85 84/84/84
f 95/95/95 96/96/96 86/86/86 85/85/85
f 96/96/96 97/97/97 87/87/87 86/86/86
f 97/97/97 98/98/98 88/88/88 87/87/87
f 98/98/98 99/99/99 89/89/89 88/88/88
f 99/99/99 100/100/100 90/90/90 89/89/89
f 100/100/100 101/101/101 91/91/91 90/90/90
f 101/101/101 92/92/92 82/82/82 91/91/91
f 102/102/102 103/103/103 93/93/93 92/92/92
f 103/103/103 104/104/104 94/94/94 93/93/93
f 104/104/104 105/105/105 95/95/95 94/94/94
f 105/105/105 106/106/106 96/96/96 95/95/95
f 106/106/106 107/107/107 97/97/97 96/96/96
f 107/107/107 108/108/108 98/98/98 97/97/97
f 108/108/108 109/109/109 99/99/99 98/98/98
f 109/109/109 110/110/110 100/100/100 99/99/99
f 110/110/110 111/111/111 101/101/101 100/100/100
f 111/111/111 102/102/102 92/92/92 101/101/101
f 112/112/112 113/113/113 103/103/103 102/102/102
f 113/113/113 114/114/114 104/104/104 103/103/103
f 114/114/114 115/115/115 105/105/105 104/104/104
f 115/115/115 116/116/116 106/106/106 105/105/105
f 116/116/116 117/117/117 107/107/107 106/106/106
f 117/117/117 118/118/118 108/108/108 107/107/107
f 118/118/118 119/119/119 109/109/109 108/108/108
f 119/119/119 120/120/120 110/110/110 109/109/109
f 120/120/120 121/121/121 111/111/111 110/110/110
f 121/121/121 112/112/112 102/102/102 111/111/111
f 122/122/122 113/113/113 112/112/112
f 122/122/122 114/114/114 113/113/113
f 122/122/122 115/115/115 114/114/114
f 122/122/122 116/116/116 115/115/115
f 122/122/122 117/117/117 116/116/116
f 122/122/122 118/118/118 117/117/117
f 122/122/122 119/119/119 118/118/118
f 122/122/122 120/120/120 119/119/119
f 122/122/122 121/121/121 120/120/120
f 122/122/122 112/112/112 121/121/121
